<svg xmlns="http://www.w3.org/2000/svg" width="609.219" height="609.22" viewBox="0 0 609.219 609.22">
  <g id="Grupo_1204655" data-name="Grupo 1204655" transform="translate(-495.781 -9030.439)">
    <path id="Trazado_30167" data-name="Trazado 30167" d="M324.752,757.7,374.8,703.477A147.5,147.5,0,0,1,270.813,573.4H292.5A8.3,8.3,0,0,0,298.13,559l-85.5-78.9a8.3,8.3,0,0,0-11.261,0l-85.5,78.9a8.3,8.3,0,0,0,5.632,14.4h18.358c5.128,131.977,102.1,240.378,228.842,262.939l-43.944-47.619A22.991,22.991,0,0,1,324.752,757.7Z" transform="translate(382.604 8772.624)" fill="#fea772"/>
    <path id="Trazado_30168" data-name="Trazado 30168" d="M466.491,686.33h-18.3c-5.121-131.963-102.129-240.312-228.856-262.894l43.9,47.573a22.991,22.991,0,0,1,0,31.017l-50.1,54.284A147.446,147.446,0,0,1,317.214,686.33H295.487a8.3,8.3,0,0,0-5.629,14.4l85.5,78.9a8.308,8.308,0,0,0,11.265,0l85.5-78.9A8.3,8.3,0,0,0,466.491,686.33Z" transform="translate(630.189 8637.743)" fill="#fea772"/>
    <path id="Trazado_30169" data-name="Trazado 30169" d="M534.877,520.748,487.3,564.65a22.859,22.859,0,0,1-31.013,0L402,514.556a147.432,147.432,0,0,1-130.016,104.03V596.9a8.306,8.306,0,0,0-14.408-5.633l-78.9,85.5a8.3,8.3,0,0,0,0,11.261l78.9,85.5a8.305,8.305,0,0,0,14.408-5.632V749.551C403.94,744.42,512.3,647.468,534.877,520.748Z" transform="translate(539.381 8863.433)" fill="#f7c99c"/>
    <path id="Trazado_30170" data-name="Trazado 30170" d="M478.258,502.786l-78.907-85.5a8.3,8.3,0,0,0-14.4,5.632v18.305C252.966,446.35,144.565,543.364,122,670.119l47.622-43.947a22.864,22.864,0,0,1,31.017,0l54.228,50.042A147.523,147.523,0,0,1,384.946,572.2v21.716a8.3,8.3,0,0,0,14.4,5.633l78.907-85.5A8.3,8.3,0,0,0,478.258,502.786Z" transform="translate(404.466 8615.845)" fill="#f7c99c"/>
    <path id="Trazado_1262447" data-name="Trazado 1262447" d="M24.28-14.068q0,7.206-2.7,10.866t-8.2,3.66Q7.963.459,5.221-3.11T2.41-13.678v-5.783q0-7.206,2.7-10.809t8.227-3.6q5.485,0,8.181,3.511T24.28-19.851ZM18.7-20.31q0-4.7-1.285-6.9A4.386,4.386,0,0,0,13.333-29.4a4.383,4.383,0,0,0-4.016,2.077q-1.285,2.077-1.354,6.483v7.573q0,4.682,1.308,6.977a4.394,4.394,0,0,0,4.108,2.295,4.317,4.317,0,0,0,3.97-2.123Q18.635-8.239,18.7-12.76Zm29.375,8.4h4.154v4.475H48.079V0H42.5V-7.436H28.067l-.161-3.4L42.318-33.414h5.76Zm-14.32,0H42.5V-25.864l-.413.734Z" transform="translate(785.501 9138.57)" fill="#12263f"/>
    <path id="Trazado_1262448" data-name="Trazado 1262448" d="M24.28-14.068q0,7.206-2.7,10.866t-8.2,3.66Q7.963.459,5.221-3.11T2.41-13.678v-5.783q0-7.206,2.7-10.809t8.227-3.6q5.485,0,8.181,3.511T24.28-19.851ZM18.7-20.31q0-4.7-1.285-6.9A4.386,4.386,0,0,0,13.333-29.4a4.383,4.383,0,0,0-4.016,2.077q-1.285,2.077-1.354,6.483v7.573q0,4.682,1.308,6.977a4.394,4.394,0,0,0,4.108,2.295,4.317,4.317,0,0,0,3.97-2.123Q18.635-8.239,18.7-12.76ZM51.682,0H29.214V-3.833l11.13-12.14a27.717,27.717,0,0,0,3.431-4.487A7.269,7.269,0,0,0,44.8-24.074a5.492,5.492,0,0,0-1.343-3.855A4.657,4.657,0,0,0,39.84-29.4a5.368,5.368,0,0,0-4.2,1.652,6.5,6.5,0,0,0-1.492,4.521H28.572a10.93,10.93,0,0,1,1.388-5.5,9.561,9.561,0,0,1,3.97-3.8,12.637,12.637,0,0,1,5.955-1.354,11.3,11.3,0,0,1,7.677,2.444,8.484,8.484,0,0,1,2.811,6.759,11.469,11.469,0,0,1-1.411,5.244A29.818,29.818,0,0,1,44.338-13.2l-8.17,8.744H51.682Z" transform="translate(766.427 9560.117)" fill="#12263f"/>
    <path id="Trazado_1262449" data-name="Trazado 1262449" d="M24.28-14.068q0,7.206-2.7,10.866t-8.2,3.66Q7.963.459,5.221-3.11T2.41-13.678v-5.783q0-7.206,2.7-10.809t8.227-3.6q5.485,0,8.181,3.511T24.28-19.851ZM18.7-20.31q0-4.7-1.285-6.9A4.386,4.386,0,0,0,13.333-29.4a4.383,4.383,0,0,0-4.016,2.077q-1.285,2.077-1.354,6.483v7.573q0,4.682,1.308,6.977a4.394,4.394,0,0,0,4.108,2.295,4.317,4.317,0,0,0,3.97-2.123Q18.635-8.239,18.7-12.76ZM44.315,0H38.761V-26.828l-8.193,2.8v-4.7l13.035-4.8h.711Z" transform="translate(986.737 9352.205)" fill="#12263f"/>
    <path id="Trazado_1262450" data-name="Trazado 1262450" d="M24.28-14.068q0,7.206-2.7,10.866t-8.2,3.66Q7.963.459,5.221-3.11T2.41-13.678v-5.783q0-7.206,2.7-10.809t8.227-3.6q5.485,0,8.181,3.511T24.28-19.851ZM18.7-20.31q0-4.7-1.285-6.9A4.386,4.386,0,0,0,13.333-29.4a4.383,4.383,0,0,0-4.016,2.077q-1.285,2.077-1.354,6.483v7.573q0,4.682,1.308,6.977a4.394,4.394,0,0,0,4.108,2.295,4.317,4.317,0,0,0,3.97-2.123Q18.635-8.239,18.7-12.76Zm16.959,1.056h3.4a6.078,6.078,0,0,0,4.073-1.331,4.749,4.749,0,0,0,1.5-3.787,5.175,5.175,0,0,0-1.251-3.706,5.033,5.033,0,0,0-3.821-1.32,5.325,5.325,0,0,0-3.695,1.3,4.332,4.332,0,0,0-1.446,3.385H28.847A8.441,8.441,0,0,1,30.213-29.4a9.174,9.174,0,0,1,3.81-3.293A12.41,12.41,0,0,1,39.5-33.873q5,0,7.86,2.513a8.819,8.819,0,0,1,2.857,6.988,7.1,7.1,0,0,1-1.434,4.234,8.995,8.995,0,0,1-3.706,2.995,8.2,8.2,0,0,1,4.188,2.96,8.105,8.105,0,0,1,1.434,4.819A8.974,8.974,0,0,1,47.608-2.2,11.984,11.984,0,0,1,39.5.459,11.894,11.894,0,0,1,31.6-2.111,8.465,8.465,0,0,1,28.526-8.95H34.1a4.665,4.665,0,0,0,1.48,3.58,5.613,5.613,0,0,0,3.982,1.377A5.79,5.79,0,0,0,43.649-5.37a5.165,5.165,0,0,0,1.492-3.993,5.218,5.218,0,0,0-1.561-4.062,6.672,6.672,0,0,0-4.636-1.423H35.663Z" transform="translate(566.145 9352.205)" fill="#12263f"/>
    <path id="Trazado_1262451" data-name="Trazado 1262451" d="M3.133,12.773V17H1.156V5.625H5.508a4.4,4.4,0,0,1,3.027.992A3.334,3.334,0,0,1,9.656,9.242a3.224,3.224,0,0,1-1.1,2.6,4.617,4.617,0,0,1-3.074.93Zm0-1.586H5.508a2.339,2.339,0,0,0,1.609-.5,1.823,1.823,0,0,0,.555-1.434,1.967,1.967,0,0,0-.562-1.473,2.168,2.168,0,0,0-1.547-.566H3.133ZM13.219,17h-1.9V5h1.9Zm7.117,0a2.93,2.93,0,0,1-.219-.789,3.193,3.193,0,0,1-4.3.219,2.325,2.325,0,0,1-.8-1.8,2.4,2.4,0,0,1,1-2.074,4.865,4.865,0,0,1,2.871-.723h1.164v-.555a1.481,1.481,0,0,0-.367-1.051,1.456,1.456,0,0,0-1.117-.395,1.672,1.672,0,0,0-1.062.324,1,1,0,0,0-.414.824H15.2a2.107,2.107,0,0,1,.461-1.3,3.071,3.071,0,0,1,1.254-.949,4.4,4.4,0,0,1,1.77-.344,3.547,3.547,0,0,1,2.367.746,2.661,2.661,0,0,1,.906,2.1v3.813a4.321,4.321,0,0,0,.32,1.82V17ZM18.25,15.633a2.159,2.159,0,0,0,1.059-.273,1.827,1.827,0,0,0,.746-.734V13.031H19.031a2.8,2.8,0,0,0-1.586.367,1.189,1.189,0,0,0-.531,1.039,1.109,1.109,0,0,0,.363.871A1.407,1.407,0,0,0,18.25,15.633ZM25.7,8.547l.055.977a3.039,3.039,0,0,1,2.461-1.133q2.641,0,2.688,3.023V17h-1.9V11.523a1.741,1.741,0,0,0-.348-1.191,1.462,1.462,0,0,0-1.137-.387,1.829,1.829,0,0,0-1.711,1.039V17h-1.9V8.547Zm10.859,8.609a3.928,3.928,0,0,1-2.926-1.137,4.124,4.124,0,0,1-1.121-3.027v-.234A5.072,5.072,0,0,1,33,10.5a3.716,3.716,0,0,1,1.371-1.551,3.625,3.625,0,0,1,1.969-.555,3.318,3.318,0,0,1,2.668,1.1,4.658,4.658,0,0,1,.941,3.117v.766H34.43a2.539,2.539,0,0,0,.7,1.656,2.1,2.1,0,0,0,1.543.609A2.571,2.571,0,0,0,38.8,14.586l1.023.977a3.418,3.418,0,0,1-1.355,1.176A4.244,4.244,0,0,1,36.563,17.156Zm-.227-7.242a1.6,1.6,0,0,0-1.262.547,2.835,2.835,0,0,0-.613,1.523h3.617v-.141A2.307,2.307,0,0,0,37.57,10.4,1.586,1.586,0,0,0,36.336,9.914ZM46.477,17a2.93,2.93,0,0,1-.219-.789,3.193,3.193,0,0,1-4.3.219,2.325,2.325,0,0,1-.8-1.8,2.4,2.4,0,0,1,1-2.074,4.865,4.865,0,0,1,2.871-.723H46.2v-.555a1.481,1.481,0,0,0-.367-1.051,1.456,1.456,0,0,0-1.117-.395,1.672,1.672,0,0,0-1.062.324,1,1,0,0,0-.414.824h-1.9a2.107,2.107,0,0,1,.461-1.3,3.071,3.071,0,0,1,1.254-.949,4.4,4.4,0,0,1,1.77-.344,3.547,3.547,0,0,1,2.367.746,2.661,2.661,0,0,1,.906,2.1v3.813a4.321,4.321,0,0,0,.32,1.82V17Zm-2.086-1.367a2.159,2.159,0,0,0,1.059-.273,1.827,1.827,0,0,0,.746-.734V13.031H45.172a2.8,2.8,0,0,0-1.586.367,1.189,1.189,0,0,0-.531,1.039,1.109,1.109,0,0,0,.363.871A1.407,1.407,0,0,0,44.391,15.633Zm10.117-5.352a4.7,4.7,0,0,0-.773-.062,1.741,1.741,0,0,0-1.758,1V17h-1.9V8.547h1.813l.047.945a2.139,2.139,0,0,1,1.906-1.1,1.777,1.777,0,0,1,.672.109ZM10.234,35.609a6.979,6.979,0,0,1-.578,2.934A4.371,4.371,0,0,1,8,40.48a4.545,4.545,0,0,1-2.473.676,4.556,4.556,0,0,1-2.465-.676,4.438,4.438,0,0,1-1.672-1.926,6.761,6.761,0,0,1-.6-2.883v-.641a6.919,6.919,0,0,1,.59-2.937,4.433,4.433,0,0,1,1.664-1.949,4.531,4.531,0,0,1,2.465-.676,4.57,4.57,0,0,1,2.465.668,4.377,4.377,0,0,1,1.66,1.922,6.9,6.9,0,0,1,.594,2.918Zm-1.977-.594a4.973,4.973,0,0,0-.715-2.9,2.339,2.339,0,0,0-2.027-1.008,2.332,2.332,0,0,0-2,1,4.876,4.876,0,0,0-.738,2.84v.656a4.935,4.935,0,0,0,.73,2.9,2.352,2.352,0,0,0,2.027,1.023,2.325,2.325,0,0,0,2.02-1,5.041,5.041,0,0,0,.707-2.922Zm11.18,1.844a5.078,5.078,0,0,1-.879,3.133,2.863,2.863,0,0,1-2.418,1.164,2.758,2.758,0,0,1-2.312-1.07L13.734,41H12.016V29h1.9v4.359a2.748,2.748,0,0,1,2.211-.969,2.9,2.9,0,0,1,2.43,1.148,5.162,5.162,0,0,1,.883,3.211Zm-1.9-.164a3.589,3.589,0,0,0-.484-2.062,1.613,1.613,0,0,0-1.406-.687,1.763,1.763,0,0,0-1.734,1.078v3.484a1.781,1.781,0,0,0,1.75,1.1,1.6,1.6,0,0,0,1.375-.664,3.477,3.477,0,0,0,.5-2.008Zm5.469-4.148v9.2a2.781,2.781,0,0,1-.645,1.98,2.47,2.47,0,0,1-1.887.684,3.794,3.794,0,0,1-1.008-.133v-1.5a2.925,2.925,0,0,0,.672.07q.945,0,.969-1.031V32.547Zm-2.062-2.2a1.008,1.008,0,0,1,.277-.727,1.048,1.048,0,0,1,.793-.289,1.061,1.061,0,0,1,.8.289,1,1,0,0,1,.281.727.977.977,0,0,1-.281.715,1.069,1.069,0,0,1-.8.285,1.056,1.056,0,0,1-.793-.285A.984.984,0,0,1,20.945,30.352Zm7.813,10.8a3.928,3.928,0,0,1-2.926-1.137,4.124,4.124,0,0,1-1.121-3.027v-.234A5.072,5.072,0,0,1,25.2,34.5a3.716,3.716,0,0,1,1.371-1.551,3.625,3.625,0,0,1,1.969-.555,3.318,3.318,0,0,1,2.668,1.1,4.658,4.658,0,0,1,.941,3.117v.766H26.625a2.539,2.539,0,0,0,.7,1.656,2.1,2.1,0,0,0,1.543.609,2.571,2.571,0,0,0,2.125-1.055l1.023.977a3.418,3.418,0,0,1-1.355,1.176A4.244,4.244,0,0,1,28.758,41.156Zm-.227-7.242a1.6,1.6,0,0,0-1.262.547,2.835,2.835,0,0,0-.613,1.523h3.617v-.141a2.307,2.307,0,0,0-.508-1.441A1.586,1.586,0,0,0,28.531,33.914ZM36,30.492v2.055h1.492v1.406H36v4.719a1.039,1.039,0,0,0,.191.7.888.888,0,0,0,.684.215,2.925,2.925,0,0,0,.664-.078v1.469a4.676,4.676,0,0,1-1.25.18q-2.187,0-2.187-2.414V33.953H32.711V32.547H34.1V30.492ZM40.961,41h-1.9V32.547h1.9ZM38.945,30.352a1.008,1.008,0,0,1,.277-.727,1.048,1.048,0,0,1,.793-.289,1.061,1.061,0,0,1,.8.289,1,1,0,0,1,.281.727.977.977,0,0,1-.281.715,1.069,1.069,0,0,1-.8.285,1.056,1.056,0,0,1-.793-.285A.984.984,0,0,1,38.945,30.352Zm7.063,8.242L47.8,32.547h1.961L46.828,41H45.18l-2.953-8.453H44.2Zm4.461-1.9a4.984,4.984,0,0,1,.492-2.238,3.6,3.6,0,0,1,1.383-1.531,3.9,3.9,0,0,1,2.047-.535,3.692,3.692,0,0,1,2.777,1.1,4.333,4.333,0,0,1,1.152,2.922l.008.445a5.029,5.029,0,0,1-.48,2.234,3.551,3.551,0,0,1-1.375,1.523,3.925,3.925,0,0,1-2.066.539,3.667,3.667,0,0,1-2.863-1.191,4.563,4.563,0,0,1-1.074-3.176Zm1.9.164a3.406,3.406,0,0,0,.539,2.043,1.752,1.752,0,0,0,1.5.738,1.733,1.733,0,0,0,1.5-.75,3.762,3.762,0,0,0,.535-2.2,3.362,3.362,0,0,0-.551-2.031,1.856,1.856,0,0,0-2.973-.012A3.691,3.691,0,0,0,52.367,36.859Zm12.3,1.844a.861.861,0,0,0-.418-.773,4.445,4.445,0,0,0-1.387-.469,7.129,7.129,0,0,1-1.617-.516,2.158,2.158,0,0,1-1.422-1.992,2.25,2.25,0,0,1,.922-1.828,3.644,3.644,0,0,1,2.344-.734,3.792,3.792,0,0,1,2.449.75,2.38,2.38,0,0,1,.934,1.945h-1.9a1.17,1.17,0,0,0-.406-.91,1.557,1.557,0,0,0-1.078-.363,1.682,1.682,0,0,0-1.02.289.911.911,0,0,0-.395.773.769.769,0,0,0,.367.68,5.049,5.049,0,0,0,1.484.488,7.027,7.027,0,0,1,1.754.586,2.484,2.484,0,0,1,.945.816,2.082,2.082,0,0,1,.309,1.156,2.2,2.2,0,0,1-.945,1.848,4.031,4.031,0,0,1-2.477.707,4.371,4.371,0,0,1-1.852-.375A3.047,3.047,0,0,1,60,39.75a2.441,2.441,0,0,1-.453-1.414h1.844a1.338,1.338,0,0,0,.508,1.035,1.973,1.973,0,0,0,1.242.363,1.92,1.92,0,0,0,1.141-.285A.883.883,0,0,0,64.672,38.7ZM5.336,60.617h-2.2V65H1.156V53.625h4a4.656,4.656,0,0,1,3.039.883,3.122,3.122,0,0,1,1.07,2.555,3.2,3.2,0,0,1-.551,1.91A3.5,3.5,0,0,1,7.18,60.156L9.734,64.9V65H7.617Zm-2.2-1.586H5.164a2.259,2.259,0,0,0,1.563-.5,1.757,1.757,0,0,0,.563-1.379,1.871,1.871,0,0,0-.52-1.414,2.207,2.207,0,0,0-1.551-.516H3.133ZM14.68,65.156a3.928,3.928,0,0,1-2.926-1.137,4.124,4.124,0,0,1-1.121-3.027v-.234a5.072,5.072,0,0,1,.488-2.262,3.716,3.716,0,0,1,1.371-1.551,3.625,3.625,0,0,1,1.969-.555,3.318,3.318,0,0,1,2.668,1.1,4.658,4.658,0,0,1,.941,3.117v.766H12.547a2.539,2.539,0,0,0,.7,1.656,2.1,2.1,0,0,0,1.543.609,2.571,2.571,0,0,0,2.125-1.055l1.023.977a3.418,3.418,0,0,1-1.355,1.176A4.244,4.244,0,0,1,14.68,65.156Zm-.227-7.242a1.6,1.6,0,0,0-1.262.547,2.835,2.835,0,0,0-.613,1.523H16.2v-.141a2.307,2.307,0,0,0-.508-1.441A1.586,1.586,0,0,0,14.453,57.914Zm8.563,5.727a1.716,1.716,0,0,0,1.18-.414,1.415,1.415,0,0,0,.5-1.023h1.789a2.789,2.789,0,0,1-.492,1.473,3.228,3.228,0,0,1-1.25,1.082,3.725,3.725,0,0,1-1.7.4,3.6,3.6,0,0,1-2.812-1.148,4.555,4.555,0,0,1-1.039-3.172v-.2a4.479,4.479,0,0,1,1.031-3.09,3.571,3.571,0,0,1,2.813-1.16,3.473,3.473,0,0,1,2.457.879,3.148,3.148,0,0,1,1,2.309H24.7a1.738,1.738,0,0,0-.5-1.2,1.6,1.6,0,0,0-1.184-.469,1.671,1.671,0,0,0-1.422.668,3.408,3.408,0,0,0-.508,2.027v.3a3.465,3.465,0,0,0,.5,2.051A1.669,1.669,0,0,0,23.016,63.641Zm10.023.531a2.944,2.944,0,0,1-2.375.984,2.624,2.624,0,0,1-2.082-.8,3.423,3.423,0,0,1-.707-2.328V56.547h1.9V62q0,1.609,1.336,1.609a1.876,1.876,0,0,0,1.867-.992v-6.07h1.9V65H33.086Zm8.2-5.891a4.7,4.7,0,0,0-.773-.062,1.741,1.741,0,0,0-1.758,1V65H36.8V56.547h1.813l.047.945a2.139,2.139,0,0,1,1.906-1.1,1.777,1.777,0,0,1,.672.109ZM47.172,62.7a.861.861,0,0,0-.418-.773,4.445,4.445,0,0,0-1.387-.469,7.129,7.129,0,0,1-1.617-.516,2.158,2.158,0,0,1-1.422-1.992,2.25,2.25,0,0,1,.922-1.828,3.644,3.644,0,0,1,2.344-.734,3.792,3.792,0,0,1,2.449.75,2.38,2.38,0,0,1,.934,1.945h-1.9a1.17,1.17,0,0,0-.406-.91,1.557,1.557,0,0,0-1.078-.363,1.682,1.682,0,0,0-1.02.289.911.911,0,0,0-.395.773.769.769,0,0,0,.367.68,5.049,5.049,0,0,0,1.484.488,7.027,7.027,0,0,1,1.754.586,2.484,2.484,0,0,1,.945.816,2.082,2.082,0,0,1,.309,1.156,2.2,2.2,0,0,1-.945,1.848,4.031,4.031,0,0,1-2.477.707,4.371,4.371,0,0,1-1.852-.375A3.047,3.047,0,0,1,42.5,63.75a2.441,2.441,0,0,1-.453-1.414h1.844a1.338,1.338,0,0,0,.508,1.035,1.973,1.973,0,0,0,1.242.363,1.92,1.92,0,0,0,1.141-.285A.883.883,0,0,0,47.172,62.7ZM50.336,60.7a4.984,4.984,0,0,1,.492-2.238,3.6,3.6,0,0,1,1.383-1.531,3.9,3.9,0,0,1,2.047-.535,3.692,3.692,0,0,1,2.777,1.1,4.333,4.333,0,0,1,1.152,2.922l.008.445a5.029,5.029,0,0,1-.48,2.234,3.551,3.551,0,0,1-1.375,1.523,3.925,3.925,0,0,1-2.066.539,3.667,3.667,0,0,1-2.863-1.191,4.563,4.563,0,0,1-1.074-3.176Zm1.9.164a3.406,3.406,0,0,0,.539,2.043,1.752,1.752,0,0,0,1.5.738,1.733,1.733,0,0,0,1.5-.75,3.762,3.762,0,0,0,.535-2.2,3.362,3.362,0,0,0-.551-2.031,1.856,1.856,0,0,0-2.973-.012A3.691,3.691,0,0,0,52.234,60.859Zm12.3,1.844a.861.861,0,0,0-.418-.773,4.445,4.445,0,0,0-1.387-.469,7.129,7.129,0,0,1-1.617-.516A2.158,2.158,0,0,1,59.7,58.953a2.25,2.25,0,0,1,.922-1.828,3.644,3.644,0,0,1,2.344-.734,3.792,3.792,0,0,1,2.449.75,2.38,2.38,0,0,1,.934,1.945h-1.9a1.17,1.17,0,0,0-.406-.91,1.557,1.557,0,0,0-1.078-.363,1.682,1.682,0,0,0-1.02.289.911.911,0,0,0-.395.773.769.769,0,0,0,.367.68,5.049,5.049,0,0,0,1.484.488,7.027,7.027,0,0,1,1.754.586,2.484,2.484,0,0,1,.945.816,2.082,2.082,0,0,1,.309,1.156,2.2,2.2,0,0,1-.945,1.848,4.031,4.031,0,0,1-2.477.707,4.371,4.371,0,0,1-1.852-.375,3.047,3.047,0,0,1-1.266-1.031,2.441,2.441,0,0,1-.453-1.414h1.844a1.338,1.338,0,0,0,.508,1.035,1.973,1.973,0,0,0,1.242.363,1.92,1.92,0,0,0,1.141-.285A.883.883,0,0,0,64.539,62.7ZM9.836,85.3a4.107,4.107,0,0,1-1.344,2.84,4.581,4.581,0,0,1-3.117,1.02,4.436,4.436,0,0,1-2.395-.645,4.231,4.231,0,0,1-1.6-1.832A6.611,6.611,0,0,1,.8,83.922V82.859a6.659,6.659,0,0,1,.57-2.836A4.3,4.3,0,0,1,3,78.133a4.566,4.566,0,0,1,2.465-.664A4.386,4.386,0,0,1,8.5,78.492a4.276,4.276,0,0,1,1.336,2.891H7.867a2.81,2.81,0,0,0-.715-1.77,2.363,2.363,0,0,0-1.684-.543,2.309,2.309,0,0,0-1.98.941,4.7,4.7,0,0,0-.707,2.762v1.008a4.988,4.988,0,0,0,.66,2.813,2.191,2.191,0,0,0,1.934.969,2.555,2.555,0,0,0,1.75-.523A2.729,2.729,0,0,0,7.867,85.3Zm1.227-.6a4.984,4.984,0,0,1,.492-2.238,3.6,3.6,0,0,1,1.383-1.531,3.9,3.9,0,0,1,2.047-.535,3.692,3.692,0,0,1,2.777,1.1,4.333,4.333,0,0,1,1.152,2.922l.008.445a5.029,5.029,0,0,1-.48,2.234,3.551,3.551,0,0,1-1.375,1.523A3.925,3.925,0,0,1,15,89.156a3.667,3.667,0,0,1-2.863-1.191,4.563,4.563,0,0,1-1.074-3.176Zm1.9.164A3.406,3.406,0,0,0,13.5,86.9a1.752,1.752,0,0,0,1.5.738,1.733,1.733,0,0,0,1.5-.75,3.762,3.762,0,0,0,.535-2.2,3.362,3.362,0,0,0-.551-2.031,1.856,1.856,0,0,0-2.973-.012A3.691,3.691,0,0,0,12.961,84.859Zm9.352-4.312.055.883A3.042,3.042,0,0,1,24.8,80.391a2.337,2.337,0,0,1,2.32,1.3,3,3,0,0,1,2.594-1.3,2.636,2.636,0,0,1,2.082.773,3.405,3.405,0,0,1,.7,2.281V89H30.6V83.5a1.681,1.681,0,0,0-.352-1.18,1.539,1.539,0,0,0-1.164-.375,1.581,1.581,0,0,0-1.059.348,1.833,1.833,0,0,0-.574.91l.008,5.8h-1.9V83.438a1.354,1.354,0,0,0-1.523-1.492,1.671,1.671,0,0,0-1.617.93V89h-1.9V80.547ZM39.57,88.172a2.944,2.944,0,0,1-2.375.984,2.624,2.624,0,0,1-2.082-.8,3.423,3.423,0,0,1-.707-2.328V80.547h1.9V86q0,1.609,1.336,1.609a1.876,1.876,0,0,0,1.867-.992v-6.07h1.9V89H39.617ZM45.1,80.547l.055.977a3.039,3.039,0,0,1,2.461-1.133q2.641,0,2.688,3.023V89h-1.9V83.523a1.741,1.741,0,0,0-.348-1.191,1.462,1.462,0,0,0-1.137-.387,1.829,1.829,0,0,0-1.711,1.039V89h-1.9V80.547ZM54.258,89h-1.9V80.547h1.9ZM52.242,78.352a1.008,1.008,0,0,1,.277-.727,1.048,1.048,0,0,1,.793-.289,1.061,1.061,0,0,1,.8.289,1,1,0,0,1,.281.727.977.977,0,0,1-.281.715,1.069,1.069,0,0,1-.8.285,1.056,1.056,0,0,1-.793-.285A.984.984,0,0,1,52.242,78.352ZM59.8,87.641a1.717,1.717,0,0,0,1.18-.414,1.415,1.415,0,0,0,.5-1.023h1.789a2.789,2.789,0,0,1-.492,1.473,3.228,3.228,0,0,1-1.25,1.082,3.725,3.725,0,0,1-1.7.4,3.6,3.6,0,0,1-2.812-1.148,4.555,4.555,0,0,1-1.039-3.172v-.2A4.479,4.479,0,0,1,57,81.551a3.571,3.571,0,0,1,2.813-1.16,3.473,3.473,0,0,1,2.457.879,3.148,3.148,0,0,1,1,2.309H61.477a1.738,1.738,0,0,0-.5-1.2,1.6,1.6,0,0,0-1.184-.469,1.671,1.671,0,0,0-1.422.668,3.408,3.408,0,0,0-.508,2.027v.3a3.465,3.465,0,0,0,.5,2.051A1.669,1.669,0,0,0,59.8,87.641ZM69.75,89a2.93,2.93,0,0,1-.219-.789,3.193,3.193,0,0,1-4.3.219,2.325,2.325,0,0,1-.8-1.8,2.4,2.4,0,0,1,1-2.074,4.865,4.865,0,0,1,2.871-.723h1.164v-.555A1.481,1.481,0,0,0,69.1,82.23a1.456,1.456,0,0,0-1.117-.395,1.672,1.672,0,0,0-1.062.324,1,1,0,0,0-.414.824h-1.9a2.107,2.107,0,0,1,.461-1.3,3.071,3.071,0,0,1,1.254-.949,4.4,4.4,0,0,1,1.77-.344,3.547,3.547,0,0,1,2.367.746,2.661,2.661,0,0,1,.906,2.1v3.813a4.321,4.321,0,0,0,.32,1.82V89Zm-2.086-1.367a2.16,2.16,0,0,0,1.059-.273,1.827,1.827,0,0,0,.746-.734V85.031H68.445a2.8,2.8,0,0,0-1.586.367,1.189,1.189,0,0,0-.531,1.039,1.109,1.109,0,0,0,.363.871A1.407,1.407,0,0,0,67.664,87.633Zm10.117-5.352a4.7,4.7,0,0,0-.773-.062,1.741,1.741,0,0,0-1.758,1V89h-1.9V80.547h1.813l.047.945a2.139,2.139,0,0,1,1.906-1.1,1.777,1.777,0,0,1,.672.109Z" transform="translate(956.218 9196.388)" fill="#12263f"/>
    <path id="Trazado_1262452" data-name="Trazado 1262452" d="M5.164,14.523l2.891-8.9h2.172L6.133,17H4.219L.141,5.625H2.3Zm9.883,2.633a3.928,3.928,0,0,1-2.926-1.137A4.124,4.124,0,0,1,11,12.992v-.234a5.072,5.072,0,0,1,.488-2.262,3.716,3.716,0,0,1,1.371-1.551,3.625,3.625,0,0,1,1.969-.555,3.318,3.318,0,0,1,2.668,1.1,4.658,4.658,0,0,1,.941,3.117v.766H12.914a2.539,2.539,0,0,0,.7,1.656,2.1,2.1,0,0,0,1.543.609,2.571,2.571,0,0,0,2.125-1.055l1.023.977a3.418,3.418,0,0,1-1.355,1.176A4.244,4.244,0,0,1,15.047,17.156ZM14.82,9.914a1.6,1.6,0,0,0-1.262.547,2.835,2.835,0,0,0-.613,1.523h3.617v-.141a2.307,2.307,0,0,0-.508-1.441A1.586,1.586,0,0,0,14.82,9.914Zm9.516.367a4.7,4.7,0,0,0-.773-.062,1.741,1.741,0,0,0-1.758,1V17h-1.9V8.547h1.813l.047.945a2.139,2.139,0,0,1,1.906-1.1,1.777,1.777,0,0,1,.672.109ZM27.555,17h-1.9V8.547h1.9ZM25.539,6.352a1.008,1.008,0,0,1,.277-.727,1.048,1.048,0,0,1,.793-.289,1.061,1.061,0,0,1,.8.289,1,1,0,0,1,.281.727.977.977,0,0,1-.281.715,1.069,1.069,0,0,1-.8.285,1.056,1.056,0,0,1-.793-.285A.984.984,0,0,1,25.539,6.352ZM30.125,17V9.953H28.836V8.547h1.289V7.969a3.382,3.382,0,0,1,.422-1.7A2.624,2.624,0,0,1,31.719,5.2a4.218,4.218,0,0,1,1.82-.359,5.306,5.306,0,0,1,1.2.133q.574.133,1.191.336l-.289,1.57A6.043,6.043,0,0,0,33.672,6.5a1.759,1.759,0,0,0-1.258.379,1.516,1.516,0,0,0-.391,1.137v.531h1.664V9.953H32.023V17Zm6.7,0h-1.9V8.547h1.9Zm5.578-1.359a1.716,1.716,0,0,0,1.18-.414,1.415,1.415,0,0,0,.5-1.023h1.789a2.789,2.789,0,0,1-.492,1.473,3.228,3.228,0,0,1-1.25,1.082,3.725,3.725,0,0,1-1.7.4,3.6,3.6,0,0,1-2.812-1.148,4.555,4.555,0,0,1-1.039-3.172v-.2a4.479,4.479,0,0,1,1.031-3.09,3.571,3.571,0,0,1,2.813-1.16,3.473,3.473,0,0,1,2.457.879,3.148,3.148,0,0,1,1,2.309H44.086a1.738,1.738,0,0,0-.5-1.2,1.6,1.6,0,0,0-1.184-.469,1.671,1.671,0,0,0-1.422.668,3.408,3.408,0,0,0-.508,2.027v.3a3.465,3.465,0,0,0,.5,2.051A1.669,1.669,0,0,0,42.406,15.641ZM52.359,17a2.93,2.93,0,0,1-.219-.789,3.193,3.193,0,0,1-4.3.219,2.325,2.325,0,0,1-.8-1.8,2.4,2.4,0,0,1,1-2.074,4.865,4.865,0,0,1,2.871-.723h1.164v-.555a1.481,1.481,0,0,0-.367-1.051,1.456,1.456,0,0,0-1.117-.395,1.672,1.672,0,0,0-1.062.324,1,1,0,0,0-.414.824h-1.9a2.107,2.107,0,0,1,.461-1.3,3.071,3.071,0,0,1,1.254-.949,4.4,4.4,0,0,1,1.77-.344,3.547,3.547,0,0,1,2.367.746,2.661,2.661,0,0,1,.906,2.1v3.813a4.321,4.321,0,0,0,.32,1.82V17Zm-2.086-1.367a2.159,2.159,0,0,0,1.059-.273,1.827,1.827,0,0,0,.746-.734V13.031H51.055a2.8,2.8,0,0,0-1.586.367,1.189,1.189,0,0,0-.531,1.039,1.109,1.109,0,0,0,.363.871A1.407,1.407,0,0,0,50.273,15.633Zm10.117-5.352a4.7,4.7,0,0,0-.773-.062,1.741,1.741,0,0,0-1.758,1V17h-1.9V8.547h1.813l.047.945a2.139,2.139,0,0,1,1.906-1.1A1.777,1.777,0,0,1,60.4,8.5ZM3.719,29.625,7,38.344l3.273-8.719h2.555V41H10.859V37.25l.2-5.016L7.7,41H6.281L2.93,32.242l.2,5.008V41H1.156V29.625ZM18.7,41.156a3.928,3.928,0,0,1-2.926-1.137,4.124,4.124,0,0,1-1.121-3.027v-.234a5.072,5.072,0,0,1,.488-2.262,3.716,3.716,0,0,1,1.371-1.551,3.625,3.625,0,0,1,1.969-.555,3.318,3.318,0,0,1,2.668,1.1,4.658,4.658,0,0,1,.941,3.117v.766H16.57a2.539,2.539,0,0,0,.7,1.656,2.1,2.1,0,0,0,1.543.609,2.571,2.571,0,0,0,2.125-1.055l1.023.977a3.418,3.418,0,0,1-1.355,1.176A4.244,4.244,0,0,1,18.7,41.156Zm-.227-7.242a1.6,1.6,0,0,0-1.262.547,2.835,2.835,0,0,0-.613,1.523h3.617v-.141a2.307,2.307,0,0,0-.508-1.441A1.586,1.586,0,0,0,18.477,33.914Zm4.734,2.8a5.026,5.026,0,0,1,.906-3.137,2.9,2.9,0,0,1,2.43-1.184,2.759,2.759,0,0,1,2.172.938V29h1.9V41H28.9l-.094-.875a2.8,2.8,0,0,1-2.273,1.031,2.887,2.887,0,0,1-2.4-1.2A5.21,5.21,0,0,1,23.211,36.711Zm1.9.164a3.519,3.519,0,0,0,.5,2.012,1.61,1.61,0,0,0,1.41.723,1.793,1.793,0,0,0,1.7-1.039V34.961a1.766,1.766,0,0,0-1.687-1.016,1.622,1.622,0,0,0-1.422.73A3.918,3.918,0,0,0,25.109,36.875ZM34.617,41h-1.9V32.547h1.9ZM32.6,30.352a1.008,1.008,0,0,1,.277-.727,1.048,1.048,0,0,1,.793-.289,1.061,1.061,0,0,1,.8.289,1,1,0,0,1,.281.727.977.977,0,0,1-.281.715,1.069,1.069,0,0,1-.8.285,1.056,1.056,0,0,1-.793-.285A.984.984,0,0,1,32.6,30.352Zm3.727,6.359a5.026,5.026,0,0,1,.906-3.137,2.9,2.9,0,0,1,2.43-1.184,2.759,2.759,0,0,1,2.172.938V29h1.9V41H42.016l-.094-.875a2.8,2.8,0,0,1-2.273,1.031,2.887,2.887,0,0,1-2.4-1.2A5.21,5.21,0,0,1,36.328,36.711Zm1.9.164a3.519,3.519,0,0,0,.5,2.012,1.61,1.61,0,0,0,1.41.723,1.793,1.793,0,0,0,1.7-1.039V34.961a1.766,1.766,0,0,0-1.687-1.016,1.622,1.622,0,0,0-1.422.73A3.919,3.919,0,0,0,38.227,36.875ZM50.766,41a2.93,2.93,0,0,1-.219-.789,3.193,3.193,0,0,1-4.3.219,2.325,2.325,0,0,1-.8-1.8,2.4,2.4,0,0,1,1-2.074,4.865,4.865,0,0,1,2.871-.723h1.164v-.555a1.481,1.481,0,0,0-.367-1.051A1.456,1.456,0,0,0,49,33.836a1.672,1.672,0,0,0-1.062.324,1,1,0,0,0-.414.824h-1.9a2.107,2.107,0,0,1,.461-1.3,3.071,3.071,0,0,1,1.254-.949,4.4,4.4,0,0,1,1.77-.344,3.547,3.547,0,0,1,2.367.746,2.661,2.661,0,0,1,.906,2.1v3.813a4.321,4.321,0,0,0,.32,1.82V41ZM48.68,39.633a2.159,2.159,0,0,0,1.059-.273,1.827,1.827,0,0,0,.746-.734V37.031H49.461a2.8,2.8,0,0,0-1.586.367,1.189,1.189,0,0,0-.531,1.039,1.109,1.109,0,0,0,.363.871A1.407,1.407,0,0,0,48.68,39.633Zm10.43-.93a.861.861,0,0,0-.418-.773,4.445,4.445,0,0,0-1.387-.469,7.129,7.129,0,0,1-1.617-.516,2.158,2.158,0,0,1-1.422-1.992,2.25,2.25,0,0,1,.922-1.828,3.644,3.644,0,0,1,2.344-.734,3.792,3.792,0,0,1,2.449.75,2.38,2.38,0,0,1,.934,1.945h-1.9a1.17,1.17,0,0,0-.406-.91,1.557,1.557,0,0,0-1.078-.363,1.682,1.682,0,0,0-1.02.289.911.911,0,0,0-.395.773.769.769,0,0,0,.367.68,5.049,5.049,0,0,0,1.484.488,7.027,7.027,0,0,1,1.754.586,2.484,2.484,0,0,1,.945.816,2.082,2.082,0,0,1,.309,1.156,2.2,2.2,0,0,1-.945,1.848,4.031,4.031,0,0,1-2.477.707,4.371,4.371,0,0,1-1.852-.375,3.047,3.047,0,0,1-1.266-1.031,2.441,2.441,0,0,1-.453-1.414h1.844a1.338,1.338,0,0,0,.508,1.035,1.973,1.973,0,0,0,1.242.363,1.92,1.92,0,0,0,1.141-.285A.883.883,0,0,0,59.109,38.7Zm3.547-2.328a11.9,11.9,0,0,1,.484-3.426,9.4,9.4,0,0,1,1.422-2.9,5.646,5.646,0,0,1,1.984-1.793l.375,1.109a5.8,5.8,0,0,0-1.785,2.551,11.424,11.424,0,0,0-.746,3.926l-.008.672a12.42,12.42,0,0,0,.668,4.223,6.224,6.224,0,0,0,1.871,2.824l-.375,1.055a5.655,5.655,0,0,1-1.988-1.8,9.4,9.4,0,0,1-1.422-2.9A12.374,12.374,0,0,1,62.656,36.375ZM72.945,38.7a.861.861,0,0,0-.418-.773,4.445,4.445,0,0,0-1.387-.469,7.129,7.129,0,0,1-1.617-.516A2.158,2.158,0,0,1,68.1,34.953a2.25,2.25,0,0,1,.922-1.828,3.644,3.644,0,0,1,2.344-.734,3.792,3.792,0,0,1,2.449.75,2.38,2.38,0,0,1,.934,1.945h-1.9a1.17,1.17,0,0,0-.406-.91,1.557,1.557,0,0,0-1.078-.363,1.682,1.682,0,0,0-1.02.289.911.911,0,0,0-.395.773.769.769,0,0,0,.367.68,5.049,5.049,0,0,0,1.484.488,7.027,7.027,0,0,1,1.754.586,2.484,2.484,0,0,1,.945.816,2.082,2.082,0,0,1,.309,1.156,2.2,2.2,0,0,1-.945,1.848,4.031,4.031,0,0,1-2.477.707,4.371,4.371,0,0,1-1.852-.375,3.047,3.047,0,0,1-1.266-1.031,2.441,2.441,0,0,1-.453-1.414h1.844a1.338,1.338,0,0,0,.508,1.035,1.973,1.973,0,0,0,1.242.363,1.92,1.92,0,0,0,1.141-.285A.883.883,0,0,0,72.945,38.7Zm7.18-2.2a11.754,11.754,0,0,1-.477,3.348A9.485,9.485,0,0,1,78.2,42.785a5.66,5.66,0,0,1-2.023,1.832L75.8,43.563a6,6,0,0,0,1.855-2.77,12.3,12.3,0,0,0,.684-4.254v-.18A12.484,12.484,0,0,0,77.75,32.4a6.98,6.98,0,0,0-1.7-2.863L75.8,29.32l.375-1.062a5.6,5.6,0,0,1,1.938,1.719,9.326,9.326,0,0,1,1.438,2.762,11.5,11.5,0,0,1,.563,3.152ZM7.523,62.352H3.117L2.2,65H.141l4.3-11.375H6.211L10.516,65H8.453ZM3.672,60.758h3.3L5.32,56.039Zm12.984,3.414a2.944,2.944,0,0,1-2.375.984,2.624,2.624,0,0,1-2.082-.8,3.423,3.423,0,0,1-.707-2.328V56.547h1.9V62q0,1.609,1.336,1.609a1.876,1.876,0,0,0,1.867-.992v-6.07h1.9V65H16.7Zm6.148-9.68v2.055H24.3v1.406H22.8v4.719a1.039,1.039,0,0,0,.191.7.888.888,0,0,0,.684.215,2.925,2.925,0,0,0,.664-.078v1.469a4.676,4.676,0,0,1-1.25.18q-2.188,0-2.187-2.414V57.953H19.516V56.547h1.391V54.492Zm2.352,6.2a4.984,4.984,0,0,1,.492-2.238,3.6,3.6,0,0,1,1.383-1.531,3.9,3.9,0,0,1,2.047-.535,3.692,3.692,0,0,1,2.777,1.1,4.333,4.333,0,0,1,1.152,2.922l.008.445a5.029,5.029,0,0,1-.48,2.234,3.551,3.551,0,0,1-1.375,1.523,3.925,3.925,0,0,1-2.066.539,3.667,3.667,0,0,1-2.863-1.191,4.563,4.563,0,0,1-1.074-3.176Zm1.9.164a3.406,3.406,0,0,0,.539,2.043,1.752,1.752,0,0,0,1.5.738,1.733,1.733,0,0,0,1.5-.75,3.762,3.762,0,0,0,.535-2.2,3.362,3.362,0,0,0-.551-2.031,1.856,1.856,0,0,0-2.973-.012A3.691,3.691,0,0,0,27.055,60.859Zm11.992-2.578a4.7,4.7,0,0,0-.773-.062,1.741,1.741,0,0,0-1.758,1V65h-1.9V56.547H36.43l.047.945a2.139,2.139,0,0,1,1.906-1.1,1.777,1.777,0,0,1,.672.109ZM42.289,65h-1.9V56.547h1.9ZM41.93,53.055h2.164L41.93,55.422H40.406ZM49.5,65a2.93,2.93,0,0,1-.219-.789,3.193,3.193,0,0,1-4.3.219,2.325,2.325,0,0,1-.8-1.8,2.4,2.4,0,0,1,1-2.074,4.865,4.865,0,0,1,2.871-.723h1.164v-.555a1.481,1.481,0,0,0-.367-1.051,1.456,1.456,0,0,0-1.117-.395,1.672,1.672,0,0,0-1.062.324,1,1,0,0,0-.414.824h-1.9a2.107,2.107,0,0,1,.461-1.3,3.071,3.071,0,0,1,1.254-.949,4.4,4.4,0,0,1,1.77-.344,3.547,3.547,0,0,1,2.367.746,2.661,2.661,0,0,1,.906,2.1v3.813a4.321,4.321,0,0,0,.32,1.82V65Zm-2.086-1.367a2.159,2.159,0,0,0,1.059-.273,1.827,1.827,0,0,0,.746-.734V61.031H48.2a2.8,2.8,0,0,0-1.586.367,1.189,1.189,0,0,0-.531,1.039,1.109,1.109,0,0,0,.363.871A1.407,1.407,0,0,0,47.414,63.633Zm10.43-.93a.861.861,0,0,0-.418-.773,4.445,4.445,0,0,0-1.387-.469,7.129,7.129,0,0,1-1.617-.516A2.158,2.158,0,0,1,53,58.953a2.25,2.25,0,0,1,.922-1.828,3.644,3.644,0,0,1,2.344-.734,3.792,3.792,0,0,1,2.449.75,2.38,2.38,0,0,1,.934,1.945h-1.9a1.17,1.17,0,0,0-.406-.91,1.557,1.557,0,0,0-1.078-.363,1.682,1.682,0,0,0-1.02.289.911.911,0,0,0-.395.773.769.769,0,0,0,.367.68,5.049,5.049,0,0,0,1.484.488,7.027,7.027,0,0,1,1.754.586,2.484,2.484,0,0,1,.945.816,2.082,2.082,0,0,1,.309,1.156,2.2,2.2,0,0,1-.945,1.848,4.031,4.031,0,0,1-2.477.707,4.371,4.371,0,0,1-1.852-.375,3.047,3.047,0,0,1-1.266-1.031,2.441,2.441,0,0,1-.453-1.414h1.844a1.338,1.338,0,0,0,.508,1.035,1.973,1.973,0,0,0,1.242.363,1.92,1.92,0,0,0,1.141-.285A.883.883,0,0,0,57.844,62.7ZM5.164,86.523l2.891-8.9h2.172L6.133,89H4.219L.141,77.625H2.3Zm9.883,2.633a3.928,3.928,0,0,1-2.926-1.137A4.124,4.124,0,0,1,11,84.992v-.234a5.072,5.072,0,0,1,.488-2.262,3.716,3.716,0,0,1,1.371-1.551,3.625,3.625,0,0,1,1.969-.555,3.318,3.318,0,0,1,2.668,1.1,4.658,4.658,0,0,1,.941,3.117v.766H12.914a2.539,2.539,0,0,0,.7,1.656,2.1,2.1,0,0,0,1.543.609,2.571,2.571,0,0,0,2.125-1.055l1.023.977a3.418,3.418,0,0,1-1.355,1.176A4.244,4.244,0,0,1,15.047,89.156Zm-.227-7.242a1.6,1.6,0,0,0-1.262.547,2.835,2.835,0,0,0-.613,1.523h3.617v-.141a2.307,2.307,0,0,0-.508-1.441A1.586,1.586,0,0,0,14.82,81.914Zm9.516.367a4.7,4.7,0,0,0-.773-.062,1.741,1.741,0,0,0-1.758,1V89h-1.9V80.547h1.813l.047.945a2.139,2.139,0,0,1,1.906-1.1,1.777,1.777,0,0,1,.672.109ZM27.555,89h-1.9V80.547h1.9ZM25.539,78.352a1.008,1.008,0,0,1,.277-.727,1.048,1.048,0,0,1,.793-.289,1.061,1.061,0,0,1,.8.289,1,1,0,0,1,.281.727.977.977,0,0,1-.281.715,1.069,1.069,0,0,1-.8.285,1.056,1.056,0,0,1-.793-.285A.984.984,0,0,1,25.539,78.352ZM30.125,89V81.953H28.836V80.547h1.289v-.578a3.382,3.382,0,0,1,.422-1.7,2.624,2.624,0,0,1,1.172-1.07,4.218,4.218,0,0,1,1.82-.359,5.306,5.306,0,0,1,1.2.133q.574.133,1.191.336l-.289,1.57a6.043,6.043,0,0,0-1.969-.375,1.759,1.759,0,0,0-1.258.379,1.516,1.516,0,0,0-.391,1.137v.531h1.664v1.406H32.023V89Zm6.7,0h-1.9V80.547h1.9Zm5.578-1.359a1.717,1.717,0,0,0,1.18-.414,1.415,1.415,0,0,0,.5-1.023h1.789a2.789,2.789,0,0,1-.492,1.473,3.228,3.228,0,0,1-1.25,1.082,3.725,3.725,0,0,1-1.7.4,3.6,3.6,0,0,1-2.812-1.148,4.555,4.555,0,0,1-1.039-3.172v-.2a4.479,4.479,0,0,1,1.031-3.09,3.571,3.571,0,0,1,2.813-1.16,3.473,3.473,0,0,1,2.457.879,3.148,3.148,0,0,1,1,2.309H44.086a1.738,1.738,0,0,0-.5-1.2,1.6,1.6,0,0,0-1.184-.469,1.671,1.671,0,0,0-1.422.668,3.408,3.408,0,0,0-.508,2.027v.3a3.465,3.465,0,0,0,.5,2.051A1.669,1.669,0,0,0,42.406,87.641ZM52.359,89a2.93,2.93,0,0,1-.219-.789,3.193,3.193,0,0,1-4.3.219,2.325,2.325,0,0,1-.8-1.8,2.4,2.4,0,0,1,1-2.074,4.865,4.865,0,0,1,2.871-.723h1.164v-.555a1.481,1.481,0,0,0-.367-1.051,1.456,1.456,0,0,0-1.117-.395,1.672,1.672,0,0,0-1.062.324,1,1,0,0,0-.414.824h-1.9a2.107,2.107,0,0,1,.461-1.3,3.071,3.071,0,0,1,1.254-.949,4.4,4.4,0,0,1,1.77-.344,3.547,3.547,0,0,1,2.367.746,2.661,2.661,0,0,1,.906,2.1v3.813a4.321,4.321,0,0,0,.32,1.82V89Zm-2.086-1.367a2.16,2.16,0,0,0,1.059-.273,1.827,1.827,0,0,0,.746-.734V85.031H51.055a2.8,2.8,0,0,0-1.586.367,1.189,1.189,0,0,0-.531,1.039,1.109,1.109,0,0,0,.363.871A1.407,1.407,0,0,0,50.273,87.633Zm9.164.008a1.717,1.717,0,0,0,1.18-.414,1.415,1.415,0,0,0,.5-1.023h1.789a2.789,2.789,0,0,1-.492,1.473,3.228,3.228,0,0,1-1.25,1.082,3.725,3.725,0,0,1-1.7.4,3.6,3.6,0,0,1-2.812-1.148,4.555,4.555,0,0,1-1.039-3.172v-.2a4.479,4.479,0,0,1,1.031-3.09,3.571,3.571,0,0,1,2.813-1.16,3.473,3.473,0,0,1,2.457.879,3.148,3.148,0,0,1,1,2.309H61.117a1.738,1.738,0,0,0-.5-1.2,1.6,1.6,0,0,0-1.184-.469,1.671,1.671,0,0,0-1.422.668,3.408,3.408,0,0,0-.508,2.027v.3a3.465,3.465,0,0,0,.5,2.051A1.669,1.669,0,0,0,59.438,87.641ZM66.359,89h-1.9V80.547h1.9ZM64.344,78.352a1.008,1.008,0,0,1,.277-.727,1.048,1.048,0,0,1,.793-.289,1.061,1.061,0,0,1,.8.289,1,1,0,0,1,.281.727.977.977,0,0,1-.281.715,1.069,1.069,0,0,1-.8.285,1.056,1.056,0,0,1-.793-.285A.984.984,0,0,1,64.344,78.352ZM68.07,84.7a4.984,4.984,0,0,1,.492-2.238,3.6,3.6,0,0,1,1.383-1.531,3.9,3.9,0,0,1,2.047-.535,3.692,3.692,0,0,1,2.777,1.1,4.333,4.333,0,0,1,1.152,2.922l.008.445a5.029,5.029,0,0,1-.48,2.234,3.551,3.551,0,0,1-1.375,1.523,3.925,3.925,0,0,1-2.066.539,3.667,3.667,0,0,1-2.863-1.191,4.563,4.563,0,0,1-1.074-3.176Zm1.9.164a3.406,3.406,0,0,0,.539,2.043,1.752,1.752,0,0,0,1.5.738,1.733,1.733,0,0,0,1.5-.75,3.762,3.762,0,0,0,.535-2.2,3.362,3.362,0,0,0-.551-2.031,1.856,1.856,0,0,0-2.973-.012A3.691,3.691,0,0,0,69.969,84.859ZM79.3,80.547l.055.977a3.039,3.039,0,0,1,2.461-1.133q2.641,0,2.688,3.023V89H82.6V83.523a1.741,1.741,0,0,0-.348-1.191,1.462,1.462,0,0,0-1.137-.387,1.829,1.829,0,0,0-1.711,1.039V89h-1.9V80.547Zm10.859,8.609A3.928,3.928,0,0,1,87.23,88.02a4.124,4.124,0,0,1-1.121-3.027v-.234A5.072,5.072,0,0,1,86.6,82.5a3.716,3.716,0,0,1,1.371-1.551,3.625,3.625,0,0,1,1.969-.555,3.318,3.318,0,0,1,2.668,1.1,4.658,4.658,0,0,1,.941,3.117v.766H88.023a2.539,2.539,0,0,0,.7,1.656,2.1,2.1,0,0,0,1.543.609,2.571,2.571,0,0,0,2.125-1.055l1.023.977a3.418,3.418,0,0,1-1.355,1.176A4.243,4.243,0,0,1,90.156,89.156Zm-.227-7.242a1.6,1.6,0,0,0-1.262.547,2.835,2.835,0,0,0-.613,1.523h3.617v-.141a2.307,2.307,0,0,0-.508-1.441A1.586,1.586,0,0,0,89.93,81.914ZM99.758,86.7a.861.861,0,0,0-.418-.773,4.445,4.445,0,0,0-1.387-.469,7.128,7.128,0,0,1-1.617-.516,2.158,2.158,0,0,1-1.422-1.992,2.25,2.25,0,0,1,.922-1.828,3.644,3.644,0,0,1,2.344-.734,3.792,3.792,0,0,1,2.449.75,2.38,2.38,0,0,1,.934,1.945h-1.9a1.17,1.17,0,0,0-.406-.91,1.557,1.557,0,0,0-1.078-.363,1.682,1.682,0,0,0-1.02.289.911.911,0,0,0-.395.773.769.769,0,0,0,.367.68,5.049,5.049,0,0,0,1.484.488,7.027,7.027,0,0,1,1.754.586,2.484,2.484,0,0,1,.945.816,2.082,2.082,0,0,1,.309,1.156,2.2,2.2,0,0,1-.945,1.848,4.031,4.031,0,0,1-2.477.707,4.371,4.371,0,0,1-1.852-.375,3.047,3.047,0,0,1-1.266-1.031,2.441,2.441,0,0,1-.453-1.414h1.844a1.338,1.338,0,0,0,.508,1.035,1.973,1.973,0,0,0,1.242.363,1.92,1.92,0,0,0,1.141-.285A.883.883,0,0,0,99.758,86.7Z" transform="translate(566.145 9377.596)" fill="#12263f"/>
    <path id="Trazado_1262453" data-name="Trazado 1262453" d="M7.523,14.352H3.117L2.2,17H.141l4.3-11.375H6.211L10.516,17H8.453ZM3.672,12.758h3.3L5.32,8.039Zm11.422,2.883a1.716,1.716,0,0,0,1.18-.414,1.415,1.415,0,0,0,.5-1.023h1.789a2.789,2.789,0,0,1-.492,1.473,3.228,3.228,0,0,1-1.25,1.082,3.725,3.725,0,0,1-1.7.4A3.6,3.6,0,0,1,12.3,16.008a4.555,4.555,0,0,1-1.039-3.172v-.2A4.479,4.479,0,0,1,12.3,9.551a3.571,3.571,0,0,1,2.813-1.16,3.473,3.473,0,0,1,2.457.879,3.148,3.148,0,0,1,1,2.309H16.773a1.738,1.738,0,0,0-.5-1.2,1.6,1.6,0,0,0-1.184-.469,1.671,1.671,0,0,0-1.422.668,3.408,3.408,0,0,0-.508,2.027v.3a3.465,3.465,0,0,0,.5,2.051A1.669,1.669,0,0,0,15.094,15.641Zm7.281-9.148V8.547h1.492V9.953H22.375v4.719a1.039,1.039,0,0,0,.191.7.888.888,0,0,0,.684.215,2.925,2.925,0,0,0,.664-.078v1.469a4.676,4.676,0,0,1-1.25.18q-2.188,0-2.187-2.414V9.953H19.086V8.547h1.391V6.492Zm8.063,9.68a2.944,2.944,0,0,1-2.375.984,2.624,2.624,0,0,1-2.082-.8,3.423,3.423,0,0,1-.707-2.328V8.547h1.9V14q0,1.609,1.336,1.609a1.876,1.876,0,0,0,1.867-.992V8.547h1.9V17H30.484Zm8.82.828a2.93,2.93,0,0,1-.219-.789,3.193,3.193,0,0,1-4.3.219,2.325,2.325,0,0,1-.8-1.8,2.4,2.4,0,0,1,1-2.074,4.865,4.865,0,0,1,2.871-.723h1.164v-.555a1.481,1.481,0,0,0-.367-1.051,1.456,1.456,0,0,0-1.117-.395,1.672,1.672,0,0,0-1.062.324,1,1,0,0,0-.414.824h-1.9a2.107,2.107,0,0,1,.461-1.3,3.071,3.071,0,0,1,1.254-.949,4.4,4.4,0,0,1,1.77-.344,3.547,3.547,0,0,1,2.367.746,2.661,2.661,0,0,1,.906,2.1v3.813a4.321,4.321,0,0,0,.32,1.82V17Zm-2.086-1.367a2.159,2.159,0,0,0,1.059-.273,1.827,1.827,0,0,0,.746-.734V13.031H37.953a2.8,2.8,0,0,0-1.586.367,1.189,1.189,0,0,0-.531,1.039,1.109,1.109,0,0,0,.363.871A1.407,1.407,0,0,0,37.172,15.633Zm10.117-5.352a4.7,4.7,0,0,0-.773-.062,1.741,1.741,0,0,0-1.758,1V17h-1.9V8.547h1.813l.047.945a2.139,2.139,0,0,1,1.906-1.1A1.777,1.777,0,0,1,47.3,8.5ZM10.234,35.609a6.979,6.979,0,0,1-.578,2.934A4.371,4.371,0,0,1,8,40.48a4.545,4.545,0,0,1-2.473.676,4.556,4.556,0,0,1-2.465-.676,4.438,4.438,0,0,1-1.672-1.926,6.761,6.761,0,0,1-.6-2.883v-.641a6.919,6.919,0,0,1,.59-2.937,4.433,4.433,0,0,1,1.664-1.949,4.531,4.531,0,0,1,2.465-.676,4.57,4.57,0,0,1,2.465.668,4.377,4.377,0,0,1,1.66,1.922,6.9,6.9,0,0,1,.594,2.918Zm-1.977-.594a4.973,4.973,0,0,0-.715-2.9,2.339,2.339,0,0,0-2.027-1.008,2.332,2.332,0,0,0-2,1,4.876,4.876,0,0,0-.738,2.84v.656a4.935,4.935,0,0,0,.73,2.9,2.352,2.352,0,0,0,2.027,1.023,2.325,2.325,0,0,0,2.02-1,5.041,5.041,0,0,0,.707-2.922Zm11.18,1.844a5.078,5.078,0,0,1-.879,3.133,2.863,2.863,0,0,1-2.418,1.164,2.758,2.758,0,0,1-2.312-1.07L13.734,41H12.016V29h1.9v4.359a2.748,2.748,0,0,1,2.211-.969,2.9,2.9,0,0,1,2.43,1.148,5.162,5.162,0,0,1,.883,3.211Zm-1.9-.164a3.589,3.589,0,0,0-.484-2.062,1.613,1.613,0,0,0-1.406-.687,1.763,1.763,0,0,0-1.734,1.078v3.484a1.781,1.781,0,0,0,1.75,1.1,1.6,1.6,0,0,0,1.375-.664,3.477,3.477,0,0,0,.5-2.008Zm5.469-4.148v9.2a2.781,2.781,0,0,1-.645,1.98,2.47,2.47,0,0,1-1.887.684,3.794,3.794,0,0,1-1.008-.133v-1.5a2.925,2.925,0,0,0,.672.07q.945,0,.969-1.031V32.547Zm-2.062-2.2a1.008,1.008,0,0,1,.277-.727,1.048,1.048,0,0,1,.793-.289,1.061,1.061,0,0,1,.8.289,1,1,0,0,1,.281.727.977.977,0,0,1-.281.715,1.069,1.069,0,0,1-.8.285,1.056,1.056,0,0,1-.793-.285A.984.984,0,0,1,20.945,30.352Zm7.813,10.8a3.928,3.928,0,0,1-2.926-1.137,4.124,4.124,0,0,1-1.121-3.027v-.234A5.072,5.072,0,0,1,25.2,34.5a3.716,3.716,0,0,1,1.371-1.551,3.625,3.625,0,0,1,1.969-.555,3.318,3.318,0,0,1,2.668,1.1,4.658,4.658,0,0,1,.941,3.117v.766H26.625a2.539,2.539,0,0,0,.7,1.656,2.1,2.1,0,0,0,1.543.609,2.571,2.571,0,0,0,2.125-1.055l1.023.977a3.418,3.418,0,0,1-1.355,1.176A4.244,4.244,0,0,1,28.758,41.156Zm-.227-7.242a1.6,1.6,0,0,0-1.262.547,2.835,2.835,0,0,0-.613,1.523h3.617v-.141a2.307,2.307,0,0,0-.508-1.441A1.586,1.586,0,0,0,28.531,33.914ZM36,30.492v2.055h1.492v1.406H36v4.719a1.039,1.039,0,0,0,.191.7.888.888,0,0,0,.684.215,2.925,2.925,0,0,0,.664-.078v1.469a4.676,4.676,0,0,1-1.25.18q-2.187,0-2.187-2.414V33.953H32.711V32.547H34.1V30.492ZM40.961,41h-1.9V32.547h1.9ZM38.945,30.352a1.008,1.008,0,0,1,.277-.727,1.048,1.048,0,0,1,.793-.289,1.061,1.061,0,0,1,.8.289,1,1,0,0,1,.281.727.977.977,0,0,1-.281.715,1.069,1.069,0,0,1-.8.285,1.056,1.056,0,0,1-.793-.285A.984.984,0,0,1,38.945,30.352Zm7.063,8.242L47.8,32.547h1.961L46.828,41H45.18l-2.953-8.453H44.2Zm4.461-1.9a4.984,4.984,0,0,1,.492-2.238,3.6,3.6,0,0,1,1.383-1.531,3.9,3.9,0,0,1,2.047-.535,3.692,3.692,0,0,1,2.777,1.1,4.333,4.333,0,0,1,1.152,2.922l.008.445a5.029,5.029,0,0,1-.48,2.234,3.551,3.551,0,0,1-1.375,1.523,3.925,3.925,0,0,1-2.066.539,3.667,3.667,0,0,1-2.863-1.191,4.563,4.563,0,0,1-1.074-3.176Zm1.9.164a3.406,3.406,0,0,0,.539,2.043,1.752,1.752,0,0,0,1.5.738,1.733,1.733,0,0,0,1.5-.75,3.762,3.762,0,0,0,.535-2.2,3.362,3.362,0,0,0-.551-2.031,1.856,1.856,0,0,0-2.973-.012A3.691,3.691,0,0,0,52.367,36.859Zm12.3,1.844a.861.861,0,0,0-.418-.773,4.445,4.445,0,0,0-1.387-.469,7.129,7.129,0,0,1-1.617-.516,2.158,2.158,0,0,1-1.422-1.992,2.25,2.25,0,0,1,.922-1.828,3.644,3.644,0,0,1,2.344-.734,3.792,3.792,0,0,1,2.449.75,2.38,2.38,0,0,1,.934,1.945h-1.9a1.17,1.17,0,0,0-.406-.91,1.557,1.557,0,0,0-1.078-.363,1.682,1.682,0,0,0-1.02.289.911.911,0,0,0-.395.773.769.769,0,0,0,.367.68,5.049,5.049,0,0,0,1.484.488,7.027,7.027,0,0,1,1.754.586,2.484,2.484,0,0,1,.945.816,2.082,2.082,0,0,1,.309,1.156,2.2,2.2,0,0,1-.945,1.848,4.031,4.031,0,0,1-2.477.707,4.371,4.371,0,0,1-1.852-.375A3.047,3.047,0,0,1,60,39.75a2.441,2.441,0,0,1-.453-1.414h1.844a1.338,1.338,0,0,0,.508,1.035,1.973,1.973,0,0,0,1.242.363,1.92,1.92,0,0,0,1.141-.285A.883.883,0,0,0,64.672,38.7ZM5.336,60.617h-2.2V65H1.156V53.625h4a4.656,4.656,0,0,1,3.039.883,3.122,3.122,0,0,1,1.07,2.555,3.2,3.2,0,0,1-.551,1.91A3.5,3.5,0,0,1,7.18,60.156L9.734,64.9V65H7.617Zm-2.2-1.586H5.164a2.259,2.259,0,0,0,1.563-.5,1.757,1.757,0,0,0,.563-1.379,1.871,1.871,0,0,0-.52-1.414,2.207,2.207,0,0,0-1.551-.516H3.133ZM14.68,65.156a3.928,3.928,0,0,1-2.926-1.137,4.124,4.124,0,0,1-1.121-3.027v-.234a5.072,5.072,0,0,1,.488-2.262,3.716,3.716,0,0,1,1.371-1.551,3.625,3.625,0,0,1,1.969-.555,3.318,3.318,0,0,1,2.668,1.1,4.658,4.658,0,0,1,.941,3.117v.766H12.547a2.539,2.539,0,0,0,.7,1.656,2.1,2.1,0,0,0,1.543.609,2.571,2.571,0,0,0,2.125-1.055l1.023.977a3.418,3.418,0,0,1-1.355,1.176A4.244,4.244,0,0,1,14.68,65.156Zm-.227-7.242a1.6,1.6,0,0,0-1.262.547,2.835,2.835,0,0,0-.613,1.523H16.2v-.141a2.307,2.307,0,0,0-.508-1.441A1.586,1.586,0,0,0,14.453,57.914Zm8.563,5.727a1.716,1.716,0,0,0,1.18-.414,1.415,1.415,0,0,0,.5-1.023h1.789a2.789,2.789,0,0,1-.492,1.473,3.228,3.228,0,0,1-1.25,1.082,3.725,3.725,0,0,1-1.7.4,3.6,3.6,0,0,1-2.812-1.148,4.555,4.555,0,0,1-1.039-3.172v-.2a4.479,4.479,0,0,1,1.031-3.09,3.571,3.571,0,0,1,2.813-1.16,3.473,3.473,0,0,1,2.457.879,3.148,3.148,0,0,1,1,2.309H24.7a1.738,1.738,0,0,0-.5-1.2,1.6,1.6,0,0,0-1.184-.469,1.671,1.671,0,0,0-1.422.668,3.408,3.408,0,0,0-.508,2.027v.3a3.465,3.465,0,0,0,.5,2.051A1.669,1.669,0,0,0,23.016,63.641Zm10.023.531a2.944,2.944,0,0,1-2.375.984,2.624,2.624,0,0,1-2.082-.8,3.423,3.423,0,0,1-.707-2.328V56.547h1.9V62q0,1.609,1.336,1.609a1.876,1.876,0,0,0,1.867-.992v-6.07h1.9V65H33.086Zm8.2-5.891a4.7,4.7,0,0,0-.773-.062,1.741,1.741,0,0,0-1.758,1V65H36.8V56.547h1.813l.047.945a2.139,2.139,0,0,1,1.906-1.1,1.777,1.777,0,0,1,.672.109ZM47.172,62.7a.861.861,0,0,0-.418-.773,4.445,4.445,0,0,0-1.387-.469,7.129,7.129,0,0,1-1.617-.516,2.158,2.158,0,0,1-1.422-1.992,2.25,2.25,0,0,1,.922-1.828,3.644,3.644,0,0,1,2.344-.734,3.792,3.792,0,0,1,2.449.75,2.38,2.38,0,0,1,.934,1.945h-1.9a1.17,1.17,0,0,0-.406-.91,1.557,1.557,0,0,0-1.078-.363,1.682,1.682,0,0,0-1.02.289.911.911,0,0,0-.395.773.769.769,0,0,0,.367.68,5.049,5.049,0,0,0,1.484.488,7.027,7.027,0,0,1,1.754.586,2.484,2.484,0,0,1,.945.816,2.082,2.082,0,0,1,.309,1.156,2.2,2.2,0,0,1-.945,1.848,4.031,4.031,0,0,1-2.477.707,4.371,4.371,0,0,1-1.852-.375A3.047,3.047,0,0,1,42.5,63.75a2.441,2.441,0,0,1-.453-1.414h1.844a1.338,1.338,0,0,0,.508,1.035,1.973,1.973,0,0,0,1.242.363,1.92,1.92,0,0,0,1.141-.285A.883.883,0,0,0,47.172,62.7ZM50.336,60.7a4.984,4.984,0,0,1,.492-2.238,3.6,3.6,0,0,1,1.383-1.531,3.9,3.9,0,0,1,2.047-.535,3.692,3.692,0,0,1,2.777,1.1,4.333,4.333,0,0,1,1.152,2.922l.008.445a5.029,5.029,0,0,1-.48,2.234,3.551,3.551,0,0,1-1.375,1.523,3.925,3.925,0,0,1-2.066.539,3.667,3.667,0,0,1-2.863-1.191,4.563,4.563,0,0,1-1.074-3.176Zm1.9.164a3.406,3.406,0,0,0,.539,2.043,1.752,1.752,0,0,0,1.5.738,1.733,1.733,0,0,0,1.5-.75,3.762,3.762,0,0,0,.535-2.2,3.362,3.362,0,0,0-.551-2.031,1.856,1.856,0,0,0-2.973-.012A3.691,3.691,0,0,0,52.234,60.859Zm12.3,1.844a.861.861,0,0,0-.418-.773,4.445,4.445,0,0,0-1.387-.469,7.129,7.129,0,0,1-1.617-.516A2.158,2.158,0,0,1,59.7,58.953a2.25,2.25,0,0,1,.922-1.828,3.644,3.644,0,0,1,2.344-.734,3.792,3.792,0,0,1,2.449.75,2.38,2.38,0,0,1,.934,1.945h-1.9a1.17,1.17,0,0,0-.406-.91,1.557,1.557,0,0,0-1.078-.363,1.682,1.682,0,0,0-1.02.289.911.911,0,0,0-.395.773.769.769,0,0,0,.367.68,5.049,5.049,0,0,0,1.484.488,7.027,7.027,0,0,1,1.754.586,2.484,2.484,0,0,1,.945.816,2.082,2.082,0,0,1,.309,1.156,2.2,2.2,0,0,1-.945,1.848,4.031,4.031,0,0,1-2.477.707,4.371,4.371,0,0,1-1.852-.375,3.047,3.047,0,0,1-1.266-1.031,2.441,2.441,0,0,1-.453-1.414h1.844a1.338,1.338,0,0,0,.508,1.035,1.973,1.973,0,0,0,1.242.363,1.92,1.92,0,0,0,1.141-.285A.883.883,0,0,0,64.539,62.7ZM9.836,85.3a4.107,4.107,0,0,1-1.344,2.84,4.581,4.581,0,0,1-3.117,1.02,4.436,4.436,0,0,1-2.395-.645,4.231,4.231,0,0,1-1.6-1.832A6.611,6.611,0,0,1,.8,83.922V82.859a6.659,6.659,0,0,1,.57-2.836A4.3,4.3,0,0,1,3,78.133a4.566,4.566,0,0,1,2.465-.664A4.386,4.386,0,0,1,8.5,78.492a4.276,4.276,0,0,1,1.336,2.891H7.867a2.81,2.81,0,0,0-.715-1.77,2.363,2.363,0,0,0-1.684-.543,2.309,2.309,0,0,0-1.98.941,4.7,4.7,0,0,0-.707,2.762v1.008a4.988,4.988,0,0,0,.66,2.813,2.191,2.191,0,0,0,1.934.969,2.555,2.555,0,0,0,1.75-.523A2.729,2.729,0,0,0,7.867,85.3Zm1.227-.6a4.984,4.984,0,0,1,.492-2.238,3.6,3.6,0,0,1,1.383-1.531,3.9,3.9,0,0,1,2.047-.535,3.692,3.692,0,0,1,2.777,1.1,4.333,4.333,0,0,1,1.152,2.922l.008.445a5.029,5.029,0,0,1-.48,2.234,3.551,3.551,0,0,1-1.375,1.523A3.925,3.925,0,0,1,15,89.156a3.667,3.667,0,0,1-2.863-1.191,4.563,4.563,0,0,1-1.074-3.176Zm1.9.164A3.406,3.406,0,0,0,13.5,86.9a1.752,1.752,0,0,0,1.5.738,1.733,1.733,0,0,0,1.5-.75,3.762,3.762,0,0,0,.535-2.2,3.362,3.362,0,0,0-.551-2.031,1.856,1.856,0,0,0-2.973-.012A3.691,3.691,0,0,0,12.961,84.859Zm9.352-4.312.055.883A3.042,3.042,0,0,1,24.8,80.391a2.337,2.337,0,0,1,2.32,1.3,3,3,0,0,1,2.594-1.3,2.636,2.636,0,0,1,2.082.773,3.405,3.405,0,0,1,.7,2.281V89H30.6V83.5a1.681,1.681,0,0,0-.352-1.18,1.539,1.539,0,0,0-1.164-.375,1.581,1.581,0,0,0-1.059.348,1.833,1.833,0,0,0-.574.91l.008,5.8h-1.9V83.438a1.354,1.354,0,0,0-1.523-1.492,1.671,1.671,0,0,0-1.617.93V89h-1.9V80.547ZM39.57,88.172a2.944,2.944,0,0,1-2.375.984,2.624,2.624,0,0,1-2.082-.8,3.423,3.423,0,0,1-.707-2.328V80.547h1.9V86q0,1.609,1.336,1.609a1.876,1.876,0,0,0,1.867-.992v-6.07h1.9V89H39.617ZM45.1,80.547l.055.977a3.039,3.039,0,0,1,2.461-1.133q2.641,0,2.688,3.023V89h-1.9V83.523a1.741,1.741,0,0,0-.348-1.191,1.462,1.462,0,0,0-1.137-.387,1.829,1.829,0,0,0-1.711,1.039V89h-1.9V80.547ZM54.258,89h-1.9V80.547h1.9ZM52.242,78.352a1.008,1.008,0,0,1,.277-.727,1.048,1.048,0,0,1,.793-.289,1.061,1.061,0,0,1,.8.289,1,1,0,0,1,.281.727.977.977,0,0,1-.281.715,1.069,1.069,0,0,1-.8.285,1.056,1.056,0,0,1-.793-.285A.984.984,0,0,1,52.242,78.352ZM59.8,87.641a1.717,1.717,0,0,0,1.18-.414,1.415,1.415,0,0,0,.5-1.023h1.789a2.789,2.789,0,0,1-.492,1.473,3.228,3.228,0,0,1-1.25,1.082,3.725,3.725,0,0,1-1.7.4,3.6,3.6,0,0,1-2.812-1.148,4.555,4.555,0,0,1-1.039-3.172v-.2A4.479,4.479,0,0,1,57,81.551a3.571,3.571,0,0,1,2.813-1.16,3.473,3.473,0,0,1,2.457.879,3.148,3.148,0,0,1,1,2.309H61.477a1.738,1.738,0,0,0-.5-1.2,1.6,1.6,0,0,0-1.184-.469,1.671,1.671,0,0,0-1.422.668,3.408,3.408,0,0,0-.508,2.027v.3a3.465,3.465,0,0,0,.5,2.051A1.669,1.669,0,0,0,59.8,87.641ZM69.75,89a2.93,2.93,0,0,1-.219-.789,3.193,3.193,0,0,1-4.3.219,2.325,2.325,0,0,1-.8-1.8,2.4,2.4,0,0,1,1-2.074,4.865,4.865,0,0,1,2.871-.723h1.164v-.555A1.481,1.481,0,0,0,69.1,82.23a1.456,1.456,0,0,0-1.117-.395,1.672,1.672,0,0,0-1.062.324,1,1,0,0,0-.414.824h-1.9a2.107,2.107,0,0,1,.461-1.3,3.071,3.071,0,0,1,1.254-.949,4.4,4.4,0,0,1,1.77-.344,3.547,3.547,0,0,1,2.367.746,2.661,2.661,0,0,1,.906,2.1v3.813a4.321,4.321,0,0,0,.32,1.82V89Zm-2.086-1.367a2.16,2.16,0,0,0,1.059-.273,1.827,1.827,0,0,0,.746-.734V85.031H68.445a2.8,2.8,0,0,0-1.586.367,1.189,1.189,0,0,0-.531,1.039,1.109,1.109,0,0,0,.363.871A1.407,1.407,0,0,0,67.664,87.633Zm10.117-5.352a4.7,4.7,0,0,0-.773-.062,1.741,1.741,0,0,0-1.758,1V89h-1.9V80.547h1.813l.047.945a2.139,2.139,0,0,1,1.906-1.1,1.777,1.777,0,0,1,.672.109Z" transform="translate(665.332 9101.016)" fill="#12263f"/>
    <path id="Trazado_1262454" data-name="Trazado 1262454" d="M65.578,17H63.609V11.945H58.523V17H56.547V5.625h1.977v4.734h5.086V5.625h1.969Zm7.2,0a2.93,2.93,0,0,1-.219-.789,3.193,3.193,0,0,1-4.3.219,2.325,2.325,0,0,1-.8-1.8,2.4,2.4,0,0,1,1-2.074,4.865,4.865,0,0,1,2.871-.723H72.5v-.555a1.481,1.481,0,0,0-.367-1.051,1.456,1.456,0,0,0-1.117-.395,1.672,1.672,0,0,0-1.062.324,1,1,0,0,0-.414.824h-1.9a2.107,2.107,0,0,1,.461-1.3,3.071,3.071,0,0,1,1.254-.949,4.4,4.4,0,0,1,1.77-.344,3.547,3.547,0,0,1,2.367.746,2.661,2.661,0,0,1,.906,2.1v3.813a4.321,4.321,0,0,0,.32,1.82V17ZM70.7,15.633a2.159,2.159,0,0,0,1.059-.273,1.827,1.827,0,0,0,.746-.734V13.031H71.477a2.8,2.8,0,0,0-1.586.367,1.189,1.189,0,0,0-.531,1.039,1.109,1.109,0,0,0,.363.871A1.407,1.407,0,0,0,70.7,15.633Zm9.164.008a1.716,1.716,0,0,0,1.18-.414,1.415,1.415,0,0,0,.5-1.023h1.789a2.789,2.789,0,0,1-.492,1.473,3.228,3.228,0,0,1-1.25,1.082,3.725,3.725,0,0,1-1.7.4,3.6,3.6,0,0,1-2.812-1.148,4.555,4.555,0,0,1-1.039-3.172v-.2a4.479,4.479,0,0,1,1.031-3.09,3.571,3.571,0,0,1,2.813-1.16,3.473,3.473,0,0,1,2.457.879,3.148,3.148,0,0,1,1,2.309H81.539a1.738,1.738,0,0,0-.5-1.2,1.6,1.6,0,0,0-1.184-.469,1.671,1.671,0,0,0-1.422.668,3.408,3.408,0,0,0-.508,2.027v.3a3.465,3.465,0,0,0,.5,2.051A1.669,1.669,0,0,0,79.859,15.641Zm8.625,1.516a3.928,3.928,0,0,1-2.926-1.137,4.124,4.124,0,0,1-1.121-3.027v-.234a5.072,5.072,0,0,1,.488-2.262A3.716,3.716,0,0,1,86.3,8.945a3.625,3.625,0,0,1,1.969-.555,3.318,3.318,0,0,1,2.668,1.1,4.658,4.658,0,0,1,.941,3.117v.766H86.352a2.539,2.539,0,0,0,.7,1.656,2.1,2.1,0,0,0,1.543.609,2.571,2.571,0,0,0,2.125-1.055l1.023.977a3.418,3.418,0,0,1-1.355,1.176A4.244,4.244,0,0,1,88.484,17.156Zm-.227-7.242A1.6,1.6,0,0,0,87,10.461a2.835,2.835,0,0,0-.613,1.523H90v-.141a2.307,2.307,0,0,0-.508-1.441A1.586,1.586,0,0,0,88.258,9.914Zm9.516.367A4.7,4.7,0,0,0,97,10.219a1.741,1.741,0,0,0-1.758,1V17h-1.9V8.547h1.813l.047.945a2.139,2.139,0,0,1,1.906-1.1,1.777,1.777,0,0,1,.672.109ZM33.867,36.773V41H31.891V29.625h4.352a4.4,4.4,0,0,1,3.027.992,3.334,3.334,0,0,1,1.121,2.625,3.224,3.224,0,0,1-1.1,2.6,4.617,4.617,0,0,1-3.074.93Zm0-1.586h2.375a2.339,2.339,0,0,0,1.609-.5,1.823,1.823,0,0,0,.555-1.434,1.967,1.967,0,0,0-.562-1.473,2.168,2.168,0,0,0-1.547-.566h-2.43Zm12.492-.906a4.7,4.7,0,0,0-.773-.062,1.741,1.741,0,0,0-1.758,1V41h-1.9V32.547h1.813l.047.945a2.139,2.139,0,0,1,1.906-1.1,1.777,1.777,0,0,1,.672.109Zm.563,2.414a4.984,4.984,0,0,1,.492-2.238A3.6,3.6,0,0,1,48.8,32.926a3.9,3.9,0,0,1,2.047-.535,3.692,3.692,0,0,1,2.777,1.1,4.333,4.333,0,0,1,1.152,2.922l.008.445a5.029,5.029,0,0,1-.48,2.234,3.551,3.551,0,0,1-1.375,1.523,3.925,3.925,0,0,1-2.066.539A3.667,3.667,0,0,1,48,39.965a4.563,4.563,0,0,1-1.074-3.176Zm1.9.164a3.406,3.406,0,0,0,.539,2.043,1.752,1.752,0,0,0,1.5.738,1.733,1.733,0,0,0,1.5-.75,3.762,3.762,0,0,0,.535-2.2,3.362,3.362,0,0,0-.551-2.031,1.856,1.856,0,0,0-2.973-.012A3.691,3.691,0,0,0,48.82,36.859Zm11.039,2.781a1.716,1.716,0,0,0,1.18-.414,1.415,1.415,0,0,0,.5-1.023h1.789a2.789,2.789,0,0,1-.492,1.473,3.228,3.228,0,0,1-1.25,1.082,3.725,3.725,0,0,1-1.7.4,3.6,3.6,0,0,1-2.812-1.148,4.555,4.555,0,0,1-1.039-3.172v-.2a4.479,4.479,0,0,1,1.031-3.09,3.571,3.571,0,0,1,2.813-1.16,3.473,3.473,0,0,1,2.457.879,3.148,3.148,0,0,1,1,2.309H61.539a1.738,1.738,0,0,0-.5-1.2,1.6,1.6,0,0,0-1.184-.469,1.671,1.671,0,0,0-1.422.668,3.408,3.408,0,0,0-.508,2.027v.3a3.465,3.465,0,0,0,.5,2.051A1.669,1.669,0,0,0,59.859,39.641Zm8.625,1.516a3.928,3.928,0,0,1-2.926-1.137,4.124,4.124,0,0,1-1.121-3.027v-.234a5.072,5.072,0,0,1,.488-2.262A3.716,3.716,0,0,1,66.3,32.945a3.625,3.625,0,0,1,1.969-.555,3.318,3.318,0,0,1,2.668,1.1,4.658,4.658,0,0,1,.941,3.117v.766H66.352a2.539,2.539,0,0,0,.7,1.656,2.1,2.1,0,0,0,1.543.609,2.571,2.571,0,0,0,2.125-1.055l1.023.977a3.418,3.418,0,0,1-1.355,1.176A4.244,4.244,0,0,1,68.484,41.156Zm-.227-7.242A1.6,1.6,0,0,0,67,34.461a2.835,2.835,0,0,0-.613,1.523H70v-.141a2.307,2.307,0,0,0-.508-1.441A1.586,1.586,0,0,0,68.258,33.914ZM78.086,38.7a.861.861,0,0,0-.418-.773,4.445,4.445,0,0,0-1.387-.469,7.129,7.129,0,0,1-1.617-.516,2.158,2.158,0,0,1-1.422-1.992,2.25,2.25,0,0,1,.922-1.828,3.644,3.644,0,0,1,2.344-.734,3.792,3.792,0,0,1,2.449.75,2.38,2.38,0,0,1,.934,1.945h-1.9a1.17,1.17,0,0,0-.406-.91,1.557,1.557,0,0,0-1.078-.363,1.682,1.682,0,0,0-1.02.289.911.911,0,0,0-.395.773.769.769,0,0,0,.367.68,5.049,5.049,0,0,0,1.484.488,7.027,7.027,0,0,1,1.754.586,2.484,2.484,0,0,1,.945.816,2.082,2.082,0,0,1,.309,1.156,2.2,2.2,0,0,1-.945,1.848,4.031,4.031,0,0,1-2.477.707,4.371,4.371,0,0,1-1.852-.375,3.047,3.047,0,0,1-1.266-1.031,2.441,2.441,0,0,1-.453-1.414H74.8a1.338,1.338,0,0,0,.508,1.035,1.973,1.973,0,0,0,1.242.363,1.92,1.92,0,0,0,1.141-.285A.883.883,0,0,0,78.086,38.7ZM81.25,36.7a4.984,4.984,0,0,1,.492-2.238,3.6,3.6,0,0,1,1.383-1.531,3.9,3.9,0,0,1,2.047-.535,3.692,3.692,0,0,1,2.777,1.1A4.333,4.333,0,0,1,89.1,36.414l.008.445a5.029,5.029,0,0,1-.48,2.234,3.551,3.551,0,0,1-1.375,1.523,3.925,3.925,0,0,1-2.066.539,3.667,3.667,0,0,1-2.863-1.191,4.563,4.563,0,0,1-1.074-3.176Zm1.9.164a3.406,3.406,0,0,0,.539,2.043,1.752,1.752,0,0,0,1.5.738,1.733,1.733,0,0,0,1.5-.75,3.762,3.762,0,0,0,.535-2.2,3.362,3.362,0,0,0-.551-2.031,1.856,1.856,0,0,0-2.973-.012A3.691,3.691,0,0,0,83.148,36.859Zm12.3,1.844a.861.861,0,0,0-.418-.773,4.445,4.445,0,0,0-1.387-.469,7.129,7.129,0,0,1-1.617-.516,2.158,2.158,0,0,1-1.422-1.992,2.25,2.25,0,0,1,.922-1.828,3.644,3.644,0,0,1,2.344-.734,3.792,3.792,0,0,1,2.449.75,2.38,2.38,0,0,1,.934,1.945h-1.9a1.17,1.17,0,0,0-.406-.91,1.557,1.557,0,0,0-1.078-.363,1.682,1.682,0,0,0-1.02.289.911.911,0,0,0-.395.773.769.769,0,0,0,.367.68,5.049,5.049,0,0,0,1.484.488,7.027,7.027,0,0,1,1.754.586,2.484,2.484,0,0,1,.945.816A2.082,2.082,0,0,1,97.32,38.6a2.2,2.2,0,0,1-.945,1.848,4.031,4.031,0,0,1-2.477.707,4.371,4.371,0,0,1-1.852-.375,3.047,3.047,0,0,1-1.266-1.031,2.441,2.441,0,0,1-.453-1.414h1.844a1.338,1.338,0,0,0,.508,1.035,1.973,1.973,0,0,0,1.242.363,1.92,1.92,0,0,0,1.141-.285A.883.883,0,0,0,95.453,38.7ZM21.531,62.352H17.125L16.2,65H14.148l4.3-11.375h1.773L24.523,65H22.461ZM17.68,60.758h3.3l-1.648-4.719ZM29.1,63.641a1.716,1.716,0,0,0,1.18-.414,1.415,1.415,0,0,0,.5-1.023H32.57a2.789,2.789,0,0,1-.492,1.473,3.228,3.228,0,0,1-1.25,1.082,3.725,3.725,0,0,1-1.7.4,3.6,3.6,0,0,1-2.812-1.148,4.555,4.555,0,0,1-1.039-3.172v-.2a4.479,4.479,0,0,1,1.031-3.09,3.571,3.571,0,0,1,2.813-1.16,3.473,3.473,0,0,1,2.457.879,3.148,3.148,0,0,1,1,2.309H30.781a1.738,1.738,0,0,0-.5-1.2,1.6,1.6,0,0,0-1.184-.469,1.671,1.671,0,0,0-1.422.668,3.408,3.408,0,0,0-.508,2.027v.3a3.465,3.465,0,0,0,.5,2.051A1.669,1.669,0,0,0,29.1,63.641Zm7.281-9.148v2.055h1.492v1.406H36.383v4.719a1.039,1.039,0,0,0,.191.7.888.888,0,0,0,.684.215,2.925,2.925,0,0,0,.664-.078v1.469a4.676,4.676,0,0,1-1.25.18q-2.187,0-2.187-2.414V57.953H33.094V56.547h1.391V54.492ZM41.344,65h-1.9V56.547h1.9ZM39.328,54.352a1.008,1.008,0,0,1,.277-.727,1.048,1.048,0,0,1,.793-.289,1.061,1.061,0,0,1,.8.289,1,1,0,0,1,.281.727.977.977,0,0,1-.281.715,1.069,1.069,0,0,1-.8.285,1.056,1.056,0,0,1-.793-.285A.984.984,0,0,1,39.328,54.352Zm7.063,8.242,1.789-6.047h1.961L47.211,65H45.563l-2.953-8.453h1.969ZM53.344,65h-1.9V56.547h1.9ZM51.328,54.352a1.008,1.008,0,0,1,.277-.727,1.048,1.048,0,0,1,.793-.289,1.061,1.061,0,0,1,.8.289,1,1,0,0,1,.281.727.977.977,0,0,1-.281.715,1.069,1.069,0,0,1-.8.285,1.056,1.056,0,0,1-.793-.285A.984.984,0,0,1,51.328,54.352Zm3.727,6.359a5.026,5.026,0,0,1,.906-3.137,2.9,2.9,0,0,1,2.43-1.184,2.759,2.759,0,0,1,2.172.938V53h1.9V65H60.742l-.094-.875a2.8,2.8,0,0,1-2.273,1.031,2.887,2.887,0,0,1-2.4-1.2A5.21,5.21,0,0,1,55.055,60.711Zm1.9.164a3.519,3.519,0,0,0,.5,2.012,1.61,1.61,0,0,0,1.41.723,1.793,1.793,0,0,0,1.7-1.039V58.961a1.766,1.766,0,0,0-1.687-1.016,1.622,1.622,0,0,0-1.422.73A3.919,3.919,0,0,0,56.953,60.875ZM69.492,65a2.93,2.93,0,0,1-.219-.789,3.193,3.193,0,0,1-4.3.219,2.325,2.325,0,0,1-.8-1.8,2.4,2.4,0,0,1,1-2.074,4.865,4.865,0,0,1,2.871-.723h1.164v-.555a1.481,1.481,0,0,0-.367-1.051,1.456,1.456,0,0,0-1.117-.395,1.672,1.672,0,0,0-1.062.324,1,1,0,0,0-.414.824h-1.9a2.107,2.107,0,0,1,.461-1.3,3.071,3.071,0,0,1,1.254-.949,4.4,4.4,0,0,1,1.77-.344,3.547,3.547,0,0,1,2.367.746,2.661,2.661,0,0,1,.906,2.1v3.813a4.321,4.321,0,0,0,.32,1.82V65Zm-2.086-1.367a2.159,2.159,0,0,0,1.059-.273,1.827,1.827,0,0,0,.746-.734V61.031H68.188A2.8,2.8,0,0,0,66.6,61.4a1.189,1.189,0,0,0-.531,1.039,1.109,1.109,0,0,0,.363.871A1.407,1.407,0,0,0,67.406,63.633Zm5.336-2.922a5.026,5.026,0,0,1,.906-3.137,2.9,2.9,0,0,1,2.43-1.184,2.759,2.759,0,0,1,2.172.938V53h1.9V65H78.43l-.094-.875a2.8,2.8,0,0,1-2.273,1.031,2.887,2.887,0,0,1-2.4-1.2A5.21,5.21,0,0,1,72.742,60.711Zm1.9.164a3.519,3.519,0,0,0,.5,2.012,1.61,1.61,0,0,0,1.41.723,1.793,1.793,0,0,0,1.7-1.039V58.961a1.766,1.766,0,0,0-1.687-1.016,1.622,1.622,0,0,0-1.422.73A3.918,3.918,0,0,0,74.641,60.875Zm11.211,4.281a3.928,3.928,0,0,1-2.926-1.137A4.124,4.124,0,0,1,81.8,60.992v-.234a5.072,5.072,0,0,1,.488-2.262,3.716,3.716,0,0,1,1.371-1.551,3.625,3.625,0,0,1,1.969-.555,3.318,3.318,0,0,1,2.668,1.1,4.658,4.658,0,0,1,.941,3.117v.766H83.719a2.539,2.539,0,0,0,.7,1.656,2.1,2.1,0,0,0,1.543.609,2.571,2.571,0,0,0,2.125-1.055l1.023.977a3.418,3.418,0,0,1-1.355,1.176A4.243,4.243,0,0,1,85.852,65.156Zm-.227-7.242a1.6,1.6,0,0,0-1.262.547,2.835,2.835,0,0,0-.613,1.523h3.617v-.141a2.307,2.307,0,0,0-.508-1.441A1.586,1.586,0,0,0,85.625,57.914ZM95.453,62.7a.861.861,0,0,0-.418-.773,4.445,4.445,0,0,0-1.387-.469,7.129,7.129,0,0,1-1.617-.516,2.158,2.158,0,0,1-1.422-1.992,2.25,2.25,0,0,1,.922-1.828,3.644,3.644,0,0,1,2.344-.734,3.792,3.792,0,0,1,2.449.75,2.38,2.38,0,0,1,.934,1.945h-1.9a1.17,1.17,0,0,0-.406-.91,1.557,1.557,0,0,0-1.078-.363,1.682,1.682,0,0,0-1.02.289.911.911,0,0,0-.395.773.769.769,0,0,0,.367.68,5.049,5.049,0,0,0,1.484.488,7.027,7.027,0,0,1,1.754.586,2.484,2.484,0,0,1,.945.816A2.082,2.082,0,0,1,97.32,62.6a2.2,2.2,0,0,1-.945,1.848,4.031,4.031,0,0,1-2.477.707,4.371,4.371,0,0,1-1.852-.375,3.047,3.047,0,0,1-1.266-1.031,2.441,2.441,0,0,1-.453-1.414h1.844a1.338,1.338,0,0,0,.508,1.035,1.973,1.973,0,0,0,1.242.363,1.92,1.92,0,0,0,1.141-.285A.883.883,0,0,0,95.453,62.7ZM27.7,84.773V89H25.727V77.625h4.352a4.4,4.4,0,0,1,3.027.992,3.335,3.335,0,0,1,1.121,2.625,3.224,3.224,0,0,1-1.1,2.6,4.617,4.617,0,0,1-3.074.93Zm0-1.586h2.375a2.339,2.339,0,0,0,1.609-.5,1.823,1.823,0,0,0,.555-1.434,1.967,1.967,0,0,0-.562-1.473,2.168,2.168,0,0,0-1.547-.566H27.7ZM40.2,82.281a4.7,4.7,0,0,0-.773-.062,1.741,1.741,0,0,0-1.758,1V89h-1.9V80.547h1.813l.047.945a2.139,2.139,0,0,1,1.906-1.1,1.777,1.777,0,0,1,.672.109Zm.563,2.414a4.984,4.984,0,0,1,.492-2.238,3.6,3.6,0,0,1,1.383-1.531,3.9,3.9,0,0,1,2.047-.535,3.692,3.692,0,0,1,2.777,1.1,4.333,4.333,0,0,1,1.152,2.922l.008.445a5.029,5.029,0,0,1-.48,2.234,3.551,3.551,0,0,1-1.375,1.523,3.925,3.925,0,0,1-2.066.539,3.667,3.667,0,0,1-2.863-1.191,4.563,4.563,0,0,1-1.074-3.176Zm1.9.164A3.406,3.406,0,0,0,43.2,86.9a1.752,1.752,0,0,0,1.5.738,1.733,1.733,0,0,0,1.5-.75,3.762,3.762,0,0,0,.535-2.2,3.362,3.362,0,0,0-.551-2.031,1.856,1.856,0,0,0-2.973-.012A3.691,3.691,0,0,0,42.656,84.859Zm7.211-.148a5.026,5.026,0,0,1,.906-3.137,2.9,2.9,0,0,1,2.43-1.184,2.759,2.759,0,0,1,2.172.938V77h1.9V89H55.555l-.094-.875a2.8,2.8,0,0,1-2.273,1.031,2.887,2.887,0,0,1-2.4-1.2A5.21,5.21,0,0,1,49.867,84.711Zm1.9.164a3.519,3.519,0,0,0,.5,2.012,1.61,1.61,0,0,0,1.41.723,1.793,1.793,0,0,0,1.7-1.039V82.961a1.766,1.766,0,0,0-1.687-1.016,1.622,1.622,0,0,0-1.422.73A3.919,3.919,0,0,0,51.766,84.875Zm12.609,3.3A2.944,2.944,0,0,1,62,89.156a2.624,2.624,0,0,1-2.082-.8,3.423,3.423,0,0,1-.707-2.328V80.547h1.9V86q0,1.609,1.336,1.609a1.876,1.876,0,0,0,1.867-.992v-6.07h1.9V89H64.422Zm7.242-.531a1.716,1.716,0,0,0,1.18-.414,1.415,1.415,0,0,0,.5-1.023h1.789a2.789,2.789,0,0,1-.492,1.473,3.228,3.228,0,0,1-1.25,1.082,3.725,3.725,0,0,1-1.7.4,3.6,3.6,0,0,1-2.812-1.148,4.555,4.555,0,0,1-1.039-3.172v-.2a4.479,4.479,0,0,1,1.031-3.09,3.571,3.571,0,0,1,2.813-1.16,3.473,3.473,0,0,1,2.457.879,3.148,3.148,0,0,1,1,2.309H73.3a1.738,1.738,0,0,0-.5-1.2,1.6,1.6,0,0,0-1.184-.469,1.671,1.671,0,0,0-1.422.668,3.408,3.408,0,0,0-.508,2.027v.3a3.465,3.465,0,0,0,.5,2.051A1.669,1.669,0,0,0,71.617,87.641ZM78.9,78.492v2.055h1.492v1.406H78.9v4.719a1.039,1.039,0,0,0,.191.7.888.888,0,0,0,.684.215,2.924,2.924,0,0,0,.664-.078v1.469a4.676,4.676,0,0,1-1.25.18Q77,89.156,77,86.742V81.953H75.609V80.547H77V78.492Zm2.352,6.2a4.984,4.984,0,0,1,.492-2.238,3.6,3.6,0,0,1,1.383-1.531,3.9,3.9,0,0,1,2.047-.535,3.692,3.692,0,0,1,2.777,1.1A4.333,4.333,0,0,1,89.1,84.414l.008.445a5.029,5.029,0,0,1-.48,2.234,3.551,3.551,0,0,1-1.375,1.523,3.925,3.925,0,0,1-2.066.539,3.667,3.667,0,0,1-2.863-1.191,4.563,4.563,0,0,1-1.074-3.176Zm1.9.164a3.406,3.406,0,0,0,.539,2.043,1.752,1.752,0,0,0,1.5.738,1.733,1.733,0,0,0,1.5-.75,3.762,3.762,0,0,0,.535-2.2,3.362,3.362,0,0,0-.551-2.031,1.856,1.856,0,0,0-2.973-.012A3.691,3.691,0,0,0,83.148,84.859Zm12.3,1.844a.861.861,0,0,0-.418-.773,4.445,4.445,0,0,0-1.387-.469,7.128,7.128,0,0,1-1.617-.516,2.158,2.158,0,0,1-1.422-1.992,2.25,2.25,0,0,1,.922-1.828,3.644,3.644,0,0,1,2.344-.734,3.792,3.792,0,0,1,2.449.75,2.38,2.38,0,0,1,.934,1.945h-1.9a1.17,1.17,0,0,0-.406-.91,1.557,1.557,0,0,0-1.078-.363,1.682,1.682,0,0,0-1.02.289.911.911,0,0,0-.395.773.769.769,0,0,0,.367.68,5.049,5.049,0,0,0,1.484.488,7.027,7.027,0,0,1,1.754.586,2.484,2.484,0,0,1,.945.816A2.082,2.082,0,0,1,97.32,86.6a2.2,2.2,0,0,1-.945,1.848,4.031,4.031,0,0,1-2.477.707,4.371,4.371,0,0,1-1.852-.375,3.047,3.047,0,0,1-1.266-1.031,2.441,2.441,0,0,1-.453-1.414h1.844a1.338,1.338,0,0,0,.508,1.035,1.973,1.973,0,0,0,1.242.363,1.92,1.92,0,0,0,1.141-.285A.883.883,0,0,0,95.453,86.7ZM39.266,110.07a1.374,1.374,0,0,0-.527-1.156,6.345,6.345,0,0,0-1.9-.82,9.186,9.186,0,0,1-2.187-.922,2.919,2.919,0,0,1-1.555-2.547,2.772,2.772,0,0,1,1.121-2.266,4.538,4.538,0,0,1,2.91-.891,4.916,4.916,0,0,1,2.117.438,3.475,3.475,0,0,1,1.461,1.246,3.2,3.2,0,0,1,.531,1.793H39.266a1.782,1.782,0,0,0-.559-1.395,2.305,2.305,0,0,0-1.6-.5,2.408,2.408,0,0,0-1.5.414,1.379,1.379,0,0,0-.535,1.156,1.247,1.247,0,0,0,.578,1.043,6.66,6.66,0,0,0,1.906.813,8.769,8.769,0,0,1,2.133.9,3.392,3.392,0,0,1,1.18,1.156,3.011,3.011,0,0,1,.375,1.527,2.707,2.707,0,0,1-1.09,2.262,4.727,4.727,0,0,1-2.957.84,5.557,5.557,0,0,1-2.27-.457,3.812,3.812,0,0,1-1.609-1.262,3.144,3.144,0,0,1-.574-1.875h1.977a1.84,1.84,0,0,0,.641,1.5,2.805,2.805,0,0,0,1.836.531,2.437,2.437,0,0,0,1.551-.418A1.349,1.349,0,0,0,39.266,110.07Zm7.25,3.086a3.928,3.928,0,0,1-2.926-1.137,4.124,4.124,0,0,1-1.121-3.027v-.234a5.072,5.072,0,0,1,.488-2.262,3.716,3.716,0,0,1,1.371-1.551,3.625,3.625,0,0,1,1.969-.555,3.318,3.318,0,0,1,2.668,1.1,4.658,4.658,0,0,1,.941,3.117v.766H44.383a2.539,2.539,0,0,0,.7,1.656,2.1,2.1,0,0,0,1.543.609,2.571,2.571,0,0,0,2.125-1.055l1.023.977a3.418,3.418,0,0,1-1.355,1.176A4.244,4.244,0,0,1,46.516,113.156Zm-.227-7.242a1.6,1.6,0,0,0-1.262.547,2.835,2.835,0,0,0-.613,1.523h3.617v-.141a2.307,2.307,0,0,0-.508-1.441A1.586,1.586,0,0,0,46.289,105.914Zm9.516.367a4.7,4.7,0,0,0-.773-.062,1.741,1.741,0,0,0-1.758,1V113h-1.9v-8.453h1.813l.047.945a2.139,2.139,0,0,1,1.906-1.1,1.777,1.777,0,0,1,.672.109Zm4.32,4.313,1.789-6.047h1.961L60.945,113H59.3l-2.953-8.453h1.969ZM67.078,113h-1.9v-8.453h1.9Zm-2.016-10.648a1.008,1.008,0,0,1,.277-.727,1.048,1.048,0,0,1,.793-.289,1.061,1.061,0,0,1,.8.289,1,1,0,0,1,.281.727.977.977,0,0,1-.281.715,1.069,1.069,0,0,1-.8.285,1.056,1.056,0,0,1-.793-.285A.984.984,0,0,1,65.063,102.352Zm7.555,9.289a1.716,1.716,0,0,0,1.18-.414,1.415,1.415,0,0,0,.5-1.023h1.789a2.789,2.789,0,0,1-.492,1.473,3.228,3.228,0,0,1-1.25,1.082,3.725,3.725,0,0,1-1.7.4,3.6,3.6,0,0,1-2.812-1.148,4.555,4.555,0,0,1-1.039-3.172v-.2a4.479,4.479,0,0,1,1.031-3.09,3.571,3.571,0,0,1,2.813-1.16,3.473,3.473,0,0,1,2.457.879,3.148,3.148,0,0,1,1,2.309H74.3a1.738,1.738,0,0,0-.5-1.2,1.6,1.6,0,0,0-1.184-.469,1.671,1.671,0,0,0-1.422.668,3.408,3.408,0,0,0-.508,2.027v.3a3.465,3.465,0,0,0,.5,2.051A1.669,1.669,0,0,0,72.617,111.641ZM79.539,113h-1.9v-8.453h1.9Zm-2.016-10.648a1.008,1.008,0,0,1,.277-.727,1.048,1.048,0,0,1,.793-.289,1.061,1.061,0,0,1,.8.289,1,1,0,0,1,.281.727.977.977,0,0,1-.281.715,1.069,1.069,0,0,1-.8.285,1.056,1.056,0,0,1-.793-.285A.984.984,0,0,1,77.523,102.352ZM81.25,108.7a4.984,4.984,0,0,1,.492-2.238,3.6,3.6,0,0,1,1.383-1.531,3.9,3.9,0,0,1,2.047-.535,3.692,3.692,0,0,1,2.777,1.1,4.333,4.333,0,0,1,1.152,2.922l.008.445a5.029,5.029,0,0,1-.48,2.234,3.551,3.551,0,0,1-1.375,1.523,3.925,3.925,0,0,1-2.066.539,3.667,3.667,0,0,1-2.863-1.191,4.563,4.563,0,0,1-1.074-3.176Zm1.9.164a3.406,3.406,0,0,0,.539,2.043,1.752,1.752,0,0,0,1.5.738,1.733,1.733,0,0,0,1.5-.75,3.762,3.762,0,0,0,.535-2.2,3.362,3.362,0,0,0-.551-2.031,1.856,1.856,0,0,0-2.973-.012A3.691,3.691,0,0,0,83.148,108.859Zm12.3,1.844a.861.861,0,0,0-.418-.773,4.445,4.445,0,0,0-1.387-.469,7.128,7.128,0,0,1-1.617-.516,2.158,2.158,0,0,1-1.422-1.992,2.25,2.25,0,0,1,.922-1.828,3.644,3.644,0,0,1,2.344-.734,3.792,3.792,0,0,1,2.449.75,2.38,2.38,0,0,1,.934,1.945h-1.9a1.17,1.17,0,0,0-.406-.91,1.557,1.557,0,0,0-1.078-.363,1.682,1.682,0,0,0-1.02.289.911.911,0,0,0-.395.773.769.769,0,0,0,.367.68,5.049,5.049,0,0,0,1.484.488,7.027,7.027,0,0,1,1.754.586,2.484,2.484,0,0,1,.945.816,2.082,2.082,0,0,1,.309,1.156,2.2,2.2,0,0,1-.945,1.848,4.031,4.031,0,0,1-2.477.707,4.371,4.371,0,0,1-1.852-.375,3.047,3.047,0,0,1-1.266-1.031,2.441,2.441,0,0,1-.453-1.414h1.844a1.338,1.338,0,0,0,.508,1.035,1.973,1.973,0,0,0,1.242.363,1.92,1.92,0,0,0,1.141-.285A.883.883,0,0,0,95.453,110.7Z" transform="translate(848.707 9447.848)" fill="#12263f"/>
    <path id="Trazado_1262455" data-name="Trazado 1262455" d="M-54.905-4.333a4.673,4.673,0,0,1-.721,2.36,4.35,4.35,0,0,1-1.85,1.586A6.3,6.3,0,0,1-60.2.176a5.025,5.025,0,0,1-3.973-1.644,6.786,6.786,0,0,1-1.45-4.641v-.633a7.746,7.746,0,0,1,.655-3.292,4.961,4.961,0,0,1,1.885-2.18,5.26,5.26,0,0,1,2.848-.769,5.516,5.516,0,0,1,3.744,1.226,4.844,4.844,0,0,1,1.608,3.379h-3.076a2.292,2.292,0,0,0-.589-1.679,2.422,2.422,0,0,0-1.687-.51,1.843,1.843,0,0,0-1.687.861,5.536,5.536,0,0,0-.562,2.751v.905a6.126,6.126,0,0,0,.514,2.927,1.882,1.882,0,0,0,1.771.879,2.369,2.369,0,0,0,1.626-.5,2.126,2.126,0,0,0,.6-1.591ZM-50.458,0h-2.971V-9.51h2.971ZM-53.6-11.962A1.322,1.322,0,0,1-53.147-13a1.724,1.724,0,0,1,1.187-.4,1.724,1.724,0,0,1,1.187.4,1.322,1.322,0,0,1,.457,1.037,1.322,1.322,0,0,1-.457,1.037,1.724,1.724,0,0,1-1.187.4,1.724,1.724,0,0,1-1.187-.4A1.322,1.322,0,0,1-53.6-11.962Zm8.991,9.853a1.317,1.317,0,0,0,.967-.338,1.241,1.241,0,0,0,.334-.945h2.777A3.288,3.288,0,0,1-41.656-.826a4.168,4.168,0,0,1-2.887,1,4.22,4.22,0,0,1-3.27-1.3,5.125,5.125,0,0,1-1.2-3.6v-.123A5.792,5.792,0,0,1-48.476-7.4a3.872,3.872,0,0,1,1.534-1.7,4.573,4.573,0,0,1,2.373-.593,4.116,4.116,0,0,1,2.944,1.028,3.647,3.647,0,0,1,1.09,2.786h-2.777A1.626,1.626,0,0,0-43.673-7a1.244,1.244,0,0,0-.967-.4q-1.151,0-1.345,1.468a10.357,10.357,0,0,0-.062,1.283A4.068,4.068,0,0,0-45.7-2.663,1.187,1.187,0,0,0-44.613-2.109ZM-36.158,0h-2.971V-13.5h2.971Zm1.45-4.843a5.613,5.613,0,0,1,.554-2.536,3.96,3.96,0,0,1,1.591-1.709,4.791,4.791,0,0,1,2.435-.6,4.373,4.373,0,0,1,3.366,1.323,5.076,5.076,0,0,1,1.23,3.6v.105a4.925,4.925,0,0,1-1.235,3.529A4.384,4.384,0,0,1-30.111.176a4.434,4.434,0,0,1-3.261-1.217,4.761,4.761,0,0,1-1.327-3.3Zm2.962.185a3.538,3.538,0,0,0,.413,1.934,1.376,1.376,0,0,0,1.222.615q1.582,0,1.617-2.435v-.3q0-2.558-1.635-2.558-1.485,0-1.608,2.206Zm11.628-.167a5.809,5.809,0,0,1,.976-3.56,3.211,3.211,0,0,1,2.725-1.3,2.731,2.731,0,0,1,2.145,1V-13.5H-11.3V0h-2.663l-.149-1.02a2.8,2.8,0,0,1-2.32,1.2,3.205,3.205,0,0,1-2.689-1.3A5.993,5.993,0,0,1-20.118-4.825Zm2.962.185q0,2.531,1.477,2.531a1.458,1.458,0,0,0,1.406-.826V-6.557A1.419,1.419,0,0,0-15.662-7.4q-1.371,0-1.485,2.215ZM-5.019.176A4.889,4.889,0,0,1-8.561-1.129a4.507,4.507,0,0,1-1.354-3.4v-.246a5.84,5.84,0,0,1,.541-2.575A3.955,3.955,0,0,1-7.8-9.075a4.763,4.763,0,0,1,2.461-.611A4.117,4.117,0,0,1-2.171-8.442a4.887,4.887,0,0,1,1.16,3.467v1.151H-6.9a2.135,2.135,0,0,0,.694,1.257,2.066,2.066,0,0,0,1.389.457,2.662,2.662,0,0,0,2.2-.984l1.354,1.6A3.784,3.784,0,0,1-2.834-.277,5.3,5.3,0,0,1-5.019.176ZM-5.353-7.4q-1.3,0-1.547,1.723h2.988v-.229a1.467,1.467,0,0,0-.36-1.1A1.434,1.434,0,0,0-5.353-7.4ZM4.8,0V-12.8H8.921a6.064,6.064,0,0,1,3.05.769,5.406,5.406,0,0,1,2.114,2.171,6.554,6.554,0,0,1,.769,3.142v.589a6.592,6.592,0,0,1-.743,3.151A5.429,5.429,0,0,1,12.019-.8a5.93,5.93,0,0,1-3.01.8ZM7.884-10.415v8.042H8.956A2.4,2.4,0,0,0,11-3.318a4.63,4.63,0,0,0,.712-2.808V-6.68A4.592,4.592,0,0,0,11-9.475a2.442,2.442,0,0,0-2.074-.94ZM20.9.176a4.889,4.889,0,0,1-3.542-1.305A4.507,4.507,0,0,1,16-4.526v-.246a5.84,5.84,0,0,1,.541-2.575,3.955,3.955,0,0,1,1.578-1.727,4.763,4.763,0,0,1,2.461-.611,4.117,4.117,0,0,1,3.164,1.244,4.887,4.887,0,0,1,1.16,3.467v1.151H19.02a2.135,2.135,0,0,0,.694,1.257,2.066,2.066,0,0,0,1.389.457,2.662,2.662,0,0,0,2.2-.984l1.354,1.6A3.784,3.784,0,0,1,23.084-.277,5.3,5.3,0,0,1,20.9.176ZM20.566-7.4q-1.3,0-1.547,1.723h2.988v-.229a1.467,1.467,0,0,0-.36-1.1A1.434,1.434,0,0,0,20.566-7.4ZM28.9-9.51,29-8.394a3.27,3.27,0,0,1,2.716-1.292,2.407,2.407,0,0,1,2.435,1.433A3.165,3.165,0,0,1,36.94-9.686q2.892,0,2.971,3.5V0H36.94V-6a1.813,1.813,0,0,0-.246-1.063,1.048,1.048,0,0,0-.9-.334,1.4,1.4,0,0,0-1.31.782L34.5-6.5V0H31.526V-5.985a1.906,1.906,0,0,0-.237-1.081,1.045,1.045,0,0,0-.905-.334,1.42,1.42,0,0,0-1.3.782V0H26.121V-9.51ZM44.728,0H41.757V-9.51h2.971ZM41.581-11.962A1.322,1.322,0,0,1,42.038-13a1.724,1.724,0,0,1,1.187-.4,1.724,1.724,0,0,1,1.187.4,1.322,1.322,0,0,1,.457,1.037,1.322,1.322,0,0,1-.457,1.037,1.724,1.724,0,0,1-1.187.4,1.724,1.724,0,0,1-1.187-.4A1.322,1.322,0,0,1,41.581-11.962Zm7.69,2.452.1,1.116a3.225,3.225,0,0,1,2.716-1.292A2.713,2.713,0,0,1,54.3-8.8a4.226,4.226,0,0,1,.76,2.672V0H52.093V-6a1.6,1.6,0,0,0-.29-1.059A1.342,1.342,0,0,0,50.748-7.4a1.413,1.413,0,0,0-1.292.686V0H46.494V-9.51Zm7.084,4.685a6.421,6.421,0,0,1,.475-2.549,3.821,3.821,0,0,1,1.362-1.709,3.591,3.591,0,0,1,2.065-.6,2.855,2.855,0,0,1,2.32,1l.105-.826h2.689V-.36a4.009,4.009,0,0,1-.584,2.184A3.75,3.75,0,0,1,63.1,3.248a6.219,6.219,0,0,1-2.566.5,5.365,5.365,0,0,1-2.026-.4,3.657,3.657,0,0,1-1.5-1.028L58.245.58a2.716,2.716,0,0,0,2.18.976A1.764,1.764,0,0,0,62.394-.466v-.3a2.781,2.781,0,0,1-2.153.94,3.437,3.437,0,0,1-2.812-1.332A5.517,5.517,0,0,1,56.355-4.72Zm2.971.185a3.383,3.383,0,0,0,.439,1.85A1.387,1.387,0,0,0,61-2.109a1.573,1.573,0,0,0,1.4-.642v-4a1.534,1.534,0,0,0-1.38-.65,1.4,1.4,0,0,0-1.239.708A3.858,3.858,0,0,0,59.326-4.641Z" transform="translate(795.231 9341.279)" fill="#12263f"/>
  </g>
</svg>
