<svg xmlns="http://www.w3.org/2000/svg" xmlns:xlink="http://www.w3.org/1999/xlink" width="67.708" height="41.188" viewBox="0 0 67.708 41.188">
  <defs>
    <clipPath id="clip-path">
      <rect id="Rectángulo_455269" data-name="Rectángulo 455269" width="67.708" height="41.188" transform="translate(0 0)" fill="none"/>
    </clipPath>
  </defs>
  <g id="Grupo_1204637" data-name="Grupo 1204637" transform="translate(0 -0.002)">
    <g id="Grupo_1204635" data-name="Grupo 1204635" transform="translate(0 0.002)" clip-path="url(#clip-path)">
      <path id="Trazado_1262381" data-name="Trazado 1262381" d="M82.435,37.446a5.753,5.753,0,0,0-5.758-5.758H37.444a5.758,5.758,0,0,0-5.758,5.758V65.032a5.752,5.752,0,0,0,5.758,5.758H76.677a5.758,5.758,0,0,0,5.758-5.758V59.826l14.873,8.587V34.064L82.435,42.652Z" transform="translate(-30.643 -30.645)" fill="#fad37c"/>
      <path id="Trazado_1262382" data-name="Trazado 1262382" d="M67.187,2.518a1.043,1.043,0,0,0-1.043,0L52.835,10.2V6.8a6.773,6.773,0,0,0-.3-2.005l-.012-.037q-.022-.069-.045-.138l-.016-.046c-.02-.057-.04-.115-.062-.172l-.024-.063-.02-.05-.023-.057L52.3,4.156A6.8,6.8,0,0,0,46.034,0H6.8A6.8,6.8,0,0,0,0,6.8V34.389a6.808,6.808,0,0,0,4.154,6.266l.136.056.042.016.1.037.1.036.063.022.063.021.127.041.064.019.128.037q.1.027.193.051a6.777,6.777,0,0,0,1.636.2H46.034a6.8,6.8,0,0,0,6.8-6.8v-3.4l13.309,7.683a1.043,1.043,0,0,0,1.565-.9V3.422a1.044,1.044,0,0,0-.522-.9M66.665,37.77,51.792,29.183v5.206a5.758,5.758,0,0,1-5.758,5.758H6.8a5.752,5.752,0,0,1-5.758-5.758V6.8A5.758,5.758,0,0,1,6.8,1.045H46.034A5.752,5.752,0,0,1,51.792,6.8v5.206L66.665,3.422Z" transform="translate(0 -0.002)" fill="#1d1d1b"/>
      <path id="Trazado_1262383" data-name="Trazado 1262383" d="M609.743,300.215a.967.967,0,0,0-.086-.086l0,0a1.03,1.03,0,0,0-.168-.121l-19.1-11.029a1.043,1.043,0,0,0-1.565.9v22.057a1.041,1.041,0,0,0,.223.644,1.018,1.018,0,0,0,.177.177,1.043,1.043,0,0,0,1.165.083l19.1-11.029a1.043,1.043,0,0,0,.257-1.6" transform="translate(-569.432 -279.327)" fill="#f7be63"/>
      <path id="Trazado_1262384" data-name="Trazado 1262384" d="M590.505,290.523v22.057l19.1-11.029Z" transform="translate(-571.063 -280.958)" fill="#fd9582"/>
      <path id="Trazado_1262385" data-name="Trazado 1262385" d="M32.784,66.129V38.543a5.758,5.758,0,0,1,5.758-5.758H77.775a5.732,5.732,0,0,1,3.485,1.175,5.748,5.748,0,0,0-4.583-2.272H37.445a5.758,5.758,0,0,0-5.758,5.758V65.032a5.748,5.748,0,0,0,2.272,4.583,5.732,5.732,0,0,1-1.175-3.485" transform="translate(-30.644 -30.645)" fill="#fdf5b5"/>
      <path id="Trazado_1262386" data-name="Trazado 1262386" d="M1606.381,113.55l13.776-7.953v-1.731l-13.776,7.953Z" transform="translate(-1553.492 -100.446)" fill="#fdf5b5"/>
      <path id="Trazado_1262387" data-name="Trazado 1262387" d="M579.743,270.216a.964.964,0,0,0-.086-.086l0,0a1.031,1.031,0,0,0-.168-.121l-19.1-11.029a1.043,1.043,0,0,0-1.565.9v22.057a1.041,1.041,0,0,0,.223.644,1.016,1.016,0,0,0,.177.177,1.043,1.043,0,0,0,1.165.083l19.1-11.029a1.043,1.043,0,0,0,.257-1.6m-19.881-10.335,19.1,11.029-19.1,11.029Z" transform="translate(-540.42 -250.316)" fill="#1d1d1b"/>
    </g>
  </g>
</svg>
