<svg xmlns="http://www.w3.org/2000/svg" xmlns:xlink="http://www.w3.org/1999/xlink" width="84" height="84" viewBox="0 0 84 84">
  <defs>
    <clipPath id="clip-path">
      <rect id="Rectángulo_455170" data-name="Rectángulo 455170" width="44.466" height="42.864" fill="#fff" stroke="#fff" stroke-width="0.5"/>
    </clipPath>
  </defs>
  <g id="Grupo_1204657" data-name="Grupo 1204657" transform="translate(-1211.832 -436)">
    <circle id="Elipse_13657" data-name="Elipse 13657" cx="42" cy="42" r="42" transform="translate(1211.832 436)" fill="#fea772"/>
    <g id="Grupo_1204068" data-name="Grupo 1204068" transform="translate(1231.6 458)">
      <g id="Grupo_1204067" data-name="Grupo 1204067" clip-path="url(#clip-path)">
        <path id="Trazado_1261614" data-name="Trazado 1261614" d="M43.846,111.137H40.423a.378.378,0,1,0,0,.755h3.423a.378.378,0,1,0,0-.755" transform="translate(-26.928 -74.735)" fill="#fff" stroke="#fff" stroke-width="0.5"/>
        <path id="Trazado_1261615" data-name="Trazado 1261615" d="M63.993,111.137H60.57a.378.378,0,1,0,0,.755h3.423a.378.378,0,1,0,0-.755" transform="translate(-40.476 -74.735)" fill="#fff" stroke="#fff" stroke-width="0.5"/>
        <path id="Trazado_1261616" data-name="Trazado 1261616" d="M84.14,111.137H80.717a.378.378,0,1,0,0,.755H84.14a.378.378,0,1,0,0-.755" transform="translate(-54.024 -74.735)" fill="#fff" stroke="#fff" stroke-width="0.5"/>
        <path id="Trazado_1261617" data-name="Trazado 1261617" d="M42.624,21.415a2.319,2.319,0,0,0-2.555,3.3l-6.018,4.344a11.384,11.384,0,0,0-3.883-2.668L40.131,5.854l.007-.015.632-1.465a1.406,1.406,0,0,1,.53.564.924.924,0,0,1,.045.787l-2.13,4.9v0l-1.818,4.184a1.593,1.593,0,0,0,.058,1.363,2.105,2.105,0,0,0,1.056.979,2.191,2.191,0,0,0,.872.185,1.979,1.979,0,0,0,.564-.081,1.593,1.593,0,0,0,1.036-.888l2.636-6.065a.378.378,0,1,0-.693-.3l-2.636,6.066a.852.852,0,0,1-.559.465,1.419,1.419,0,0,1-1.6-.7.851.851,0,0,1-.042-.726l2.635-6.066v0l1.313-3.022A1.666,1.666,0,0,0,41.976,4.6a2.176,2.176,0,0,0-.905-.926l.511-1.186a1.782,1.782,0,1,0-3.273-1.412L36.864,4.427l-.006.014L28.632,25.893a10.655,10.655,0,0,0-2.533-.3h-.736L28.5,4.773l0-.017.3-2.8A1.463,1.463,0,0,0,27.5.352a1.46,1.46,0,0,0-1.607,1.3l-.3,2.8c0,.005,0,.01,0,.015L24.236,25.589h-6.3a10.652,10.652,0,0,0-2.482.293L10.344,6.717A3.185,3.185,0,0,0,9.025.634,3.184,3.184,0,0,0,9.02,7h0a3.246,3.246,0,0,0,.6-.057l5.1,19.138a11,11,0,0,0-2.708,1.285l-6.52-8.585A3.182,3.182,0,0,0,3.6,13.439,3.181,3.181,0,0,0,.029,16.175a3.184,3.184,0,0,0,2.736,3.575,3.218,3.218,0,0,0,.423.028h0a3.159,3.159,0,0,0,1.724-.513L11.4,27.8a12.452,12.452,0,0,0-4.817,8.772.376.376,0,0,0-.029.355q-.031.452-.031.913v1.351h-1.6a.378.378,0,0,0-.378.378v2.914a.378.378,0,0,0,.378.378h34a.378.378,0,0,0,.378-.378V39.572a.378.378,0,0,0-.378-.378h-1.4V37.844a12.722,12.722,0,0,0-2.953-8.216l5.952-4.3a2.3,2.3,0,0,0,1.156.625,2.317,2.317,0,0,0,2.749-1.792,2.32,2.32,0,0,0-1.792-2.749M26.348,4.521l.294-2.79a.706.706,0,1,1,1.4.148l-.294,2.79L25.287,21.025ZM7.77,5.9a2.438,2.438,0,1,1,1.658.314,2.506,2.506,0,0,1-.407.035A2.421,2.421,0,0,1,7.77,5.9M3.188,19.024A2.5,2.5,0,0,1,2.864,19a2.428,2.428,0,0,1,.317-4.836,2.441,2.441,0,0,1,.324.022A2.423,2.423,0,0,1,5.028,18.17a2.446,2.446,0,0,1-.574.493,2.4,2.4,0,0,1-1.266.361m30.1,18.134h3.423l.023,0c.012.228.02.457.02.688v1.351H7.273V37.844c0-.23.007-.459.02-.686h3.026a.378.378,0,1,0,0-.755H7.357a11.679,11.679,0,0,1,4.495-8q.3-.227.62-.433a10.211,10.211,0,0,1,2.444-1.158q.359-.114.728-.2a9.919,9.919,0,0,1,2.288-.268H26.1a9.918,9.918,0,0,1,2.26.261q.371.087.732.2l.033.011q.363.116.714.259a10.6,10.6,0,0,1,3.6,2.433q.265.272.512.562A11.876,11.876,0,0,1,36.674,36.4H33.292a.378.378,0,1,0,0,.755m4.27-32.439L39,1.376a1.027,1.027,0,0,1,1.887.813l-.506,1.173-.311-.135.153-.355a.619.619,0,0,0-.346-.8.666.666,0,0,0-.264-.055.6.6,0,0,0-.556.354l-.976,2.264a.587.587,0,0,0,.014.488.656.656,0,0,0,.331.313.666.666,0,0,0,.264.055.6.6,0,0,0,.556-.354l.524-1.215.311.135-.636,1.475-9.991,20.6-.1-.031Zm.973,35.231v2.159H5.295V39.95h33.24Zm5.143-15.942a1.563,1.563,0,0,1-1.854,1.208,1.551,1.551,0,0,1-.687-.336,1.573,1.573,0,0,1-.442-.613,1.564,1.564,0,0,1,1.45-2.147,1.58,1.58,0,0,1,.325.034,1.565,1.565,0,0,1,1.208,1.854" transform="translate(0)" fill="#fff" stroke="#fff" stroke-width="0.5"/>
      </g>
    </g>
  </g>
</svg>
