<svg xmlns="http://www.w3.org/2000/svg" xmlns:xlink="http://www.w3.org/1999/xlink" width="84" height="84" viewBox="0 0 84 84">
  <defs>
    <clipPath id="clip-path">
      <rect id="Rectángulo_455169" data-name="Rectángulo 455169" width="40.286" height="46" fill="#fef4eb" stroke="#fef4eb" stroke-width="0.5"/>
    </clipPath>
  </defs>
  <g id="Grupo_1204656" data-name="Grupo 1204656" transform="translate(-855.832 -352)">
    <path id="Trazado_1261618" data-name="Trazado 1261618" d="M42,0A42,42,0,1,1,0,42,42,42,0,0,1,42,0Z" transform="translate(855.832 352)" fill="#214539"/>
    <g id="Grupo_1204066" data-name="Grupo 1204066" transform="translate(876.689 370.5)">
      <g id="Grupo_1204065" data-name="Grupo 1204065" clip-path="url(#clip-path)">
        <path id="Trazado_1261605" data-name="Trazado 1261605" d="M88.492.963A.406.406,0,0,0,87.681.94L84.391,39c0,.009,0,.019,0,.028l-.029,1.726-.311-.006a3.088,3.088,0,0,1-1.8-.575A1.468,1.468,0,0,1,81.593,39l.155-8.024v0l.132-6.851a2.152,2.152,0,0,0-.935-1.755,3.9,3.9,0,0,0-4.347-.084A2.152,2.152,0,0,0,75.6,24L75.4,33.927a.406.406,0,1,0,.812.016l.192-9.928a1.363,1.363,0,0,1,.655-1.067,3.1,3.1,0,0,1,3.391.066,1.364,1.364,0,0,1,.613,1.092l-.192,9.928h0l-.1,4.948a2.255,2.255,0,0,0,.98,1.839,3.9,3.9,0,0,0,2.274.74l.313.006-.04,2.439a2.175,2.175,0,0,0,.771,1.677,2.837,2.837,0,0,0,1.838.689h.051a2.507,2.507,0,0,0,2.635-2.28l.082-4.978c0-.007,0-.013,0-.019Zm.3,43.117a1.7,1.7,0,0,1-1.823,1.481h-.038a2.028,2.028,0,0,1-1.314-.486,1.378,1.378,0,0,1-.5-1.055l.04-2.437.469.009-.02,1.221c0,.155.062.44.52.607a2.373,2.373,0,0,0,.75.123h.05c.76,0,1.237-.263,1.244-.688l.056-3.365c0-.155-.062-.44-.52-.607a2.383,2.383,0,0,0-.75-.123h-.05c-.76,0-1.237.264-1.244.688l-.022,1.331-.468-.009.028-1.714L87.9,7.89l.978,31.222Zm-2-3.279-.336-.007.019-1.169a1.59,1.59,0,0,1,.435-.053h.036a1.631,1.631,0,0,1,.468.068l-.05,3.037a1.576,1.576,0,0,1-.435.053h-.036a1.631,1.631,0,0,1-.468-.068l.017-1.055.334.006h.008a.406.406,0,0,0,.008-.812" transform="translate(-49.4 -0.373)" fill="#fef4eb" stroke="#fef4eb" stroke-width="0.5"/>
        <path id="Trazado_1261606" data-name="Trazado 1261606" d="M9.669.119a.406.406,0,0,0-.575,0l-4.2,4.2L.694.119A.406.406,0,0,0,.119.694l4.2,4.2-4.2,4.2a.406.406,0,0,0,.575.575l4.2-4.2,4.2,4.2a.406.406,0,0,0,.575-.575l-4.2-4.2,4.2-4.2a.406.406,0,0,0,0-.575" fill="#fef4eb" stroke="#fef4eb" stroke-width="0.5"/>
        <path id="Trazado_1261607" data-name="Trazado 1261607" d="M9.669,33.587a.406.406,0,0,0-.575,0l-4.2,4.2-4.2-4.2a.406.406,0,1,0-.575.575l4.2,4.2-4.2,4.2a.406.406,0,0,0,.575.575l4.2-4.2,4.2,4.2a.406.406,0,1,0,.575-.575l-4.2-4.2,4.2-4.2a.406.406,0,0,0,0-.575" transform="translate(0 -21.926)" fill="#fef4eb" stroke="#fef4eb" stroke-width="0.5"/>
        <path id="Trazado_1261608" data-name="Trazado 1261608" d="M42.936.119a.406.406,0,0,0-.575,0l-4.2,4.2-4.2-4.2a.406.406,0,0,0-.575.575l4.2,4.2-4.2,4.2a.406.406,0,0,0,.575.575l4.2-4.2,4.2,4.2a.406.406,0,0,0,.575-.575l-4.2-4.2,4.2-4.2a.406.406,0,0,0,0-.575" transform="translate(-21.795)" fill="#fef4eb" stroke="#fef4eb" stroke-width="0.5"/>
        <path id="Trazado_1261609" data-name="Trazado 1261609" d="M42.362,43.137a.406.406,0,1,0,.575-.575l-4.2-4.2,4.2-4.2a.406.406,0,1,0-.575-.575l-4.2,4.2-4.2-4.2a.406.406,0,1,0-.575.575l4.2,4.2-4.2,4.2a.406.406,0,0,0,.575.575l4.2-4.2Z" transform="translate(-21.795 -21.926)" fill="#fef4eb" stroke="#fef4eb" stroke-width="0.5"/>
        <path id="Trazado_1261610" data-name="Trazado 1261610" d="M76.2.119a.406.406,0,0,0-.575,0l-4.2,4.2-4.2-4.2a.406.406,0,0,0-.575.575l4.2,4.2-4.2,4.2a.406.406,0,0,0,.575.575l4.2-4.2,4.2,4.2a.406.406,0,1,0,.575-.575L72,4.894l4.2-4.2a.406.406,0,0,0,0-.575" transform="translate(-43.589)" fill="#fef4eb" stroke="#fef4eb" stroke-width="0.5"/>
        <path id="Trazado_1261611" data-name="Trazado 1261611" d="M9.669,67.055a.406.406,0,0,0-.575,0l-4.2,4.2-4.2-4.2a.406.406,0,0,0-.575.575l4.2,4.2-4.2,4.2a.406.406,0,0,0,.575.575l4.2-4.2,4.2,4.2a.406.406,0,0,0,.575-.575l-4.2-4.2,4.2-4.2a.406.406,0,0,0,0-.575" transform="translate(0 -43.853)" fill="#fef4eb" stroke="#fef4eb" stroke-width="0.5"/>
        <path id="Trazado_1261612" data-name="Trazado 1261612" d="M9.669,100.523a.407.407,0,0,0-.575,0l-4.2,4.2-4.2-4.2a.406.406,0,1,0-.575.575l4.2,4.2-4.2,4.2a.406.406,0,0,0,.575.575l4.2-4.2,4.2,4.2a.406.406,0,0,0,.575-.575l-4.2-4.2,4.2-4.2a.406.406,0,0,0,0-.575" transform="translate(0 -65.779)" fill="#fef4eb" stroke="#fef4eb" stroke-width="0.5"/>
        <path id="Trazado_1261613" data-name="Trazado 1261613" d="M53.089,107.476a.406.406,0,0,0-.406.406v2.4a3.733,3.733,0,0,1-3.729,3.729H41.129a.406.406,0,1,0,0,.812h7.825a4.546,4.546,0,0,0,4.541-4.541v-2.4a.406.406,0,0,0-.406-.406" transform="translate(-26.68 -70.412)" fill="#fef4eb" stroke="#fef4eb" stroke-width="0.5"/>
      </g>
    </g>
  </g>
</svg>
